<?xml version="1.0" encoding="UTF-8"?>
<svg version="1.1" xmlns="http://www.w3.org/2000/svg" width="33" height="33">
<path d="M0 0 C3.63 0 7.26 0 11 0 C11.66 1.32 12.32 2.64 13 4 C14.92219527 4.6601613 14.92219527 4.6601613 17.0625 4.6875 C21 5 21 5 22 6 C22.0991657 7.62257544 22.13079777 9.24939831 22.1328125 10.875 C22.13474609 12.35226562 22.13474609 12.35226562 22.13671875 13.859375 C22.13285156 14.89578125 22.12898438 15.9321875 22.125 17 C22.13080078 18.55460937 22.13080078 18.55460937 22.13671875 20.140625 C22.13542969 21.12546875 22.13414063 22.1103125 22.1328125 23.125 C22.13168457 24.03507812 22.13055664 24.94515625 22.12939453 25.8828125 C22 28 22 28 21 29 C18.70848583 29.08790975 16.41427476 29.10694038 14.12109375 29.09765625 C13.09110008 29.09553383 13.09110008 29.09553383 12.04029846 29.09336853 C9.83932199 29.08775479 7.63844591 29.07520007 5.4375 29.0625 C3.94856917 29.05748676 2.45963676 29.05292355 0.97070312 29.04882812 C-2.68623075 29.03778093 -6.34310558 29.02050713 -10 29 C-10.22580354 25.56341292 -10.42762697 22.12582782 -10.625 18.6875 C-10.72167969 17.22280273 -10.72167969 17.22280273 -10.8203125 15.72851562 C-10.871875 14.79072266 -10.9234375 13.85292969 -10.9765625 12.88671875 C-11.02893066 12.02264404 -11.08129883 11.15856934 -11.13525391 10.26831055 C-11 8 -11 8 -9 5 C-7.0546875 4.70703125 -7.0546875 4.70703125 -4.875 4.8125 C-3.59625 4.874375 -2.3175 4.93625 -1 5 C-0.67 3.35 -0.34 1.7 0 0 Z M1 4 C1 4.33 1 4.66 1 5 C3.97 5 6.94 5 10 5 C10 4.67 10 4.34 10 4 C7.03 4 4.06 4 1 4 Z " fill="#81604C" transform="translate(11,3)"/>
<path d="M0 0 C2.09220921 0.44833054 4.13044966 1.03727133 6.1875 1.625 C10.20961816 2.16128242 14.00125416 1.5662712 18 1 C18.02685412 3.31243792 18.04632841 5.6249627 18.0625 7.9375 C18.07410156 9.22527344 18.08570313 10.51304688 18.09765625 11.83984375 C18 15 18 15 17 16 C14.70848583 16.08790975 12.41427476 16.10694038 10.12109375 16.09765625 C9.09110008 16.09553383 9.09110008 16.09553383 8.04029846 16.09336853 C5.83932199 16.08775479 3.63844591 16.07520007 1.4375 16.0625 C-0.05143083 16.05748676 -1.54036324 16.05292355 -3.02929688 16.04882812 C-6.68623075 16.03778093 -10.34310558 16.02050713 -14 16 C-14 12.7 -14 9.4 -14 6 C-9.38926889 4.70323188 -5.66159911 5.28890861 -1 6 C-1.020625 5.195625 -1.04125 4.39125 -1.0625 3.5625 C-1 1 -1 1 0 0 Z " fill="#4B3125" transform="translate(15,16)"/>
<path d="M0 0 C1.32 0.33 2.64 0.66 4 1 C4.66 3.64 5.32 6.28 6 9 C3.36 9 0.72 9 -2 9 C-1.67 10.65 -1.34 12.3 -1 14 C5.27 14 11.54 14 18 14 C17.67 14.66 17.34 15.32 17 16 C6.77 16 -3.46 16 -14 16 C-14 12.7 -14 9.4 -14 6 C-9.38926889 4.70323188 -5.66159911 5.28890861 -1 6 C-1.020625 5.195625 -1.04125 4.39125 -1.0625 3.5625 C-1 1 -1 1 0 0 Z " fill="#462E23" transform="translate(15,16)"/>
<path d="M0 0 C0 1.98 0 3.96 0 6 C-4.62 6 -9.24 6 -14 6 C-14 4.02 -14 2.04 -14 0 C-12.2300132 -0.19532961 -10.45895721 -0.38098882 -8.6875 -0.5625 C-7.70136719 -0.66691406 -6.71523438 -0.77132813 -5.69921875 -0.87890625 C-3 -1 -3 -1 0 0 Z " fill="#B09077" transform="translate(33,9)"/>
<path d="M0 0 C4.29 0 8.58 0 13 0 C13 1.98 13 3.96 13 6 C8.38 6 3.76 6 -1 6 C-0.67 4.02 -0.34 2.04 0 0 Z " fill="#B89B83" transform="translate(1,9)"/>
<path d="M0 0 C3.63 0 7.26 0 11 0 C11.66 1.32 12.32 2.64 13 4 C16.05908413 4.81584568 16.05908413 4.81584568 19 5 C19 5.33 19 5.66 19 6 C9.76 6 0.52 6 -9 6 C-9 5.67 -9 5.34 -9 5 C-6.36 5 -3.72 5 -1 5 C-0.67 3.35 -0.34 1.7 0 0 Z M1 4 C1 4.33 1 4.66 1 5 C3.97 5 6.94 5 10 5 C10 4.67 10 4.34 10 4 C7.03 4 4.06 4 1 4 Z " fill="#6F5141" transform="translate(11,3)"/>
<path d="M0 0 C6.93 0.495 6.93 0.495 14 1 C14 2.65 14 4.3 14 6 C15.65 6 17.3 6 19 6 C19 6.33 19 6.66 19 7 C13.06 6.67 7.12 6.34 1 6 C0.67 4.02 0.34 2.04 0 0 Z " fill="#6A4A39" transform="translate(0,16)"/>
<path d="M0 0 C2.0625 0.4375 2.0625 0.4375 4 1 C4.33 3.31 4.66 5.62 5 8 C2.89722877 8.22197585 0.79267698 8.42713637 -1.3125 8.625 C-2.48425781 8.74101562 -3.65601563 8.85703125 -4.86328125 8.9765625 C-8 9 -8 9 -11 7 C-11 6.34 -11 5.68 -11 5 C-7.7 5.33 -4.4 5.66 -1 6 C-1 4.35 -1 2.7 -1 1 C-0.67 0.67 -0.34 0.34 0 0 Z " fill="#593C2E" transform="translate(15,16)"/>
<path d="M0 0 C-2.36551942 2.73902249 -4.54857221 3.93170092 -8 5 C-10.8125 5.125 -10.8125 5.125 -13 5 C-13.33 3.35 -13.66 1.7 -14 0 C-12.2300132 -0.19532961 -10.45895721 -0.38098882 -8.6875 -0.5625 C-7.70136719 -0.66691406 -6.71523438 -0.77132813 -5.69921875 -0.87890625 C-3 -1 -3 -1 0 0 Z " fill="#664636" transform="translate(33,18)"/>
<path d="M0 0 C2.31 0 4.62 0 7 0 C7.042721 1.66611905 7.04063832 3.33382885 7 5 C6 6 6 6 3.5 6.125 C1 6 1 6 0 5 C-0.04063832 3.33382885 -0.042721 1.66611905 0 0 Z " fill="#BEBCBB" transform="translate(13,25)"/>
<path d="M0 0 C2.0625 0.4375 2.0625 0.4375 4 1 C4 2.65 4 4.3 4 6 C2.35 6 0.7 6 -1 6 C-1.042721 4.33388095 -1.04063832 2.66617115 -1 1 C-0.67 0.67 -0.34 0.34 0 0 Z " fill="#473125" transform="translate(15,16)"/>
<path d="M0 0 C0 0.99 0 1.98 0 3 C-4.29 3 -8.58 3 -13 3 C-13 2.34 -13 1.68 -13 1 C-11.20843648 0.83222817 -9.4167455 0.66581706 -7.625 0.5 C-6.62726562 0.4071875 -5.62953125 0.314375 -4.6015625 0.21875 C-2 0 -2 0 0 0 Z " fill="#CBB1A1" transform="translate(32,8)"/>
<path d="M0 0 C0.33 0 0.66 0 1 0 C1 3.96 1 7.92 1 12 C0.67 12 0.34 12 0 12 C-0.33 9.69 -0.66 7.38 -1 5 C-1.928125 5.309375 -1.928125 5.309375 -2.875 5.625 C-3.57625 5.74875 -4.2775 5.8725 -5 6 C-5.66 5.34 -6.32 4.68 -7 4 C-6.030625 3.525625 -5.06125 3.05125 -4.0625 2.5625 C-1.19522563 1.29806053 -1.19522563 1.29806053 0 0 Z " fill="#4F3E32" transform="translate(32,18)"/>
<path d="M0 0 C1.65 0 3.3 0 5 0 C5 1.32 5 2.64 5 4 C3.68 4 2.36 4 1 4 C0.67 4.66 0.34 5.32 0 6 C0 4.02 0 2.04 0 0 Z " fill="#8F6B55" transform="translate(14,9)"/>
</svg>
