<svg width="24" height="24" viewBox="0 0 24 24" fill="none" xmlns="http://www.w3.org/2000/svg">
<g clip-path="url(#clip0_2055_68286)">
<path d="M18.9711 11.9781C18.9775 16.1112 15.6811 19.419 11.5381 19.4354C7.36323 19.4519 4.03125 16.1467 4.03125 11.9882C4.03252 7.86521 7.35179 4.56123 11.4948 4.5625C15.6455 4.56503 18.9648 7.85761 18.9711 11.9781ZM5.27455 11.9287C5.22751 15.3479 7.95183 18.1316 11.4147 18.2037C14.8306 18.2746 17.6732 15.5264 17.7278 12.1034C17.7812 8.67031 15.048 5.85118 11.6207 5.80307C8.1298 5.7537 5.32158 8.4665 5.27455 11.9287Z" fill="#056BB7"/>
<path d="M13.6942 1.7465C15.8706 2.27311 17.7024 3.26937 19.1797 4.86439C21.2734 7.12527 22.1748 9.80515 21.9726 12.8635C21.9447 13.2914 21.8569 13.7092 21.3167 13.6914C20.737 13.6724 20.6886 13.242 20.7179 12.78C20.9391 9.25323 19.6055 6.44548 16.7248 4.39601C15.3176 3.39469 13.7209 2.86681 11.9805 2.80732C11.8114 2.80099 11.6398 2.80985 11.4733 2.782C11.2063 2.73769 10.994 2.60224 10.9266 2.32248C10.8554 2.02626 10.9381 1.77308 11.2114 1.61611C12.0898 1.10849 12.9657 0.598339 13.8556 0.110972C14.1849 -0.0700502 14.537 -0.0485301 14.7366 0.317312C14.9464 0.700877 14.79 1.00216 14.4251 1.21483C14.1938 1.35028 13.9255 1.43636 13.6942 1.7465Z" fill="#056BB7"/>
<path d="M9.31148 22.2514C6.92913 21.6792 4.97139 20.5361 3.44333 18.7095C1.58983 16.4954 0.825799 13.9345 1.03302 11.0723C1.06225 10.6622 1.17794 10.2888 1.68136 10.3052C2.21656 10.3242 2.31699 10.7014 2.28394 11.1534C2.05511 14.3864 3.15857 17.0714 5.6655 19.1475C7.17322 20.3969 8.92502 21.0792 10.8929 21.1843C11.104 21.1957 11.3188 21.1843 11.5273 21.2172C11.793 21.2577 12.0078 21.3957 12.0752 21.6754C12.1464 21.9729 12.0612 22.2248 11.7892 22.3818C10.9107 22.8894 10.0348 23.4008 9.14495 23.8882C8.81569 24.0692 8.46355 24.049 8.26396 23.6831C8.05547 23.2996 8.21057 22.9983 8.57542 22.7844C8.80806 22.6476 9.0763 22.5616 9.31148 22.2514Z" fill="#056BB7"/>
<path d="M3.03371 7.47274C2.60403 7.45249 2.29511 6.9993 2.50487 6.61194C2.95871 5.77518 3.55747 5.03844 4.28209 4.41689C4.5427 4.19282 4.84272 4.24346 5.07917 4.48398C5.31817 4.72956 5.33851 5.04223 5.11223 5.28149C4.5338 5.89671 3.99733 6.54105 3.53205 7.24615C3.42272 7.41451 3.23203 7.46641 3.03371 7.47274Z" fill="#056BB7"/>
<path d="M19.9119 16.5317C20.3708 16.514 20.7115 16.9849 20.4878 17.4014C20.0467 18.2217 19.4492 18.9319 18.7576 19.5559C18.4805 19.8053 18.1665 19.7775 17.9109 19.5104C17.6745 19.2635 17.663 18.9521 17.8906 18.7129C18.4716 18.1002 19.003 17.4508 19.4708 16.7495C19.5699 16.6001 19.7377 16.5507 19.9119 16.5317Z" fill="#056BB7"/>
<path d="M10.6627 14.519C10.355 14.5254 10.1821 14.4203 10.027 14.2633C9.43335 13.6658 8.83332 13.0721 8.23709 12.4771C7.9447 12.186 7.84809 11.8531 8.14683 11.529C8.48753 11.1606 8.82442 11.31 9.13079 11.6138C9.4753 11.9556 9.85287 12.2695 10.1554 12.6442C10.4809 13.0455 10.6944 12.943 11.0021 12.6253C11.911 11.6872 12.8531 10.7796 13.7734 9.85043C14.1014 9.51876 14.4612 9.27445 14.854 9.68206C15.2176 10.0593 14.9837 10.4112 14.6722 10.7188C13.5039 11.8759 12.3382 13.0354 11.175 14.1962C11.0059 14.3659 10.8394 14.5203 10.6627 14.519Z" fill="#056BB7"/>
</g>
<defs>
<clipPath id="clip0_2055_68286">
<rect width="21" height="24" fill="white" transform="translate(1)"/>
</clipPath>
</defs>
</svg>
