<svg width="18" height="15" viewBox="0 0 18 15" fill="none" xmlns="http://www.w3.org/2000/svg">
<path d="M4.75 5.09375C4.41848 5.09375 4.10054 5.22545 3.86612 5.45987C3.6317 5.69429 3.5 6.01223 3.5 6.34375C3.5 6.67527 3.6317 6.99321 3.86612 7.22763C4.10054 7.46205 4.41848 7.59375 4.75 7.59375C5.08152 7.59375 5.39946 7.46205 5.63388 7.22763C5.8683 6.99321 6 6.67527 6 6.34375C6 6.01223 5.8683 5.69429 5.63388 5.45987C5.39946 5.22545 5.08152 5.09375 4.75 5.09375ZM8.75 5.09375C8.41848 5.09375 8.10054 5.22545 7.86612 5.45987C7.6317 5.69429 7.5 6.01223 7.5 6.34375C7.5 6.67527 7.6317 6.99321 7.86612 7.22763C8.10054 7.46205 8.41848 7.59375 8.75 7.59375C9.08152 7.59375 9.39946 7.46205 9.63388 7.22763C9.8683 6.99321 10 6.67527 10 6.34375C10 6.01223 9.8683 5.69429 9.63388 5.45987C9.39946 5.22545 9.08152 5.09375 8.75 5.09375ZM11.5 6.34375C11.5 6.01223 11.6317 5.69429 11.8661 5.45987C12.1005 5.22545 12.4185 5.09375 12.75 5.09375C13.0815 5.09375 13.3995 5.22545 13.6339 5.45987C13.8683 5.69429 14 6.01223 14 6.34375C14 6.67527 13.8683 6.99321 13.6339 7.22763C13.3995 7.46205 13.0815 7.59375 12.75 7.59375C12.4185 7.59375 12.1005 7.46205 11.8661 7.22763C11.6317 6.99321 11.5 6.67527 11.5 6.34375Z" fill="#056BB7"/>
<path fill-rule="evenodd" clip-rule="evenodd" d="M12.85 0.182879C10.1561 -0.0467821 7.44807 -0.0601582 4.752 0.142879L4.559 0.157879C3.31941 0.251428 2.16091 0.809818 1.31552 1.72122C0.470131 2.63263 0.000257362 3.82976 0 5.07288V13.5899C0.00011451 13.7195 0.0338392 13.8469 0.097883 13.9597C0.161927 14.0724 0.254102 14.1666 0.365414 14.2331C0.476726 14.2996 0.603373 14.3361 0.732995 14.339C0.862618 14.342 0.990788 14.3112 1.105 14.2499L5.015 12.1489C5.19728 12.0509 5.40105 11.9997 5.608 11.9999H14.584C15.716 11.9999 16.686 11.1899 16.889 10.0769C17.301 7.81988 17.333 5.50988 16.985 3.24188L16.883 2.57288C16.7923 1.98184 16.5056 1.43845 16.0689 1.03002C15.6321 0.621587 15.0708 0.37183 14.475 0.320879L12.85 0.182879ZM4.866 1.63888C7.48213 1.44116 10.1099 1.45386 12.724 1.67688L14.348 1.81588C14.884 1.86188 15.32 2.26888 15.401 2.80088L15.504 3.46888C15.8255 5.57227 15.795 7.71446 15.414 9.80788C15.3792 10.0023 15.277 10.1782 15.1254 10.3047C14.9738 10.4313 14.7825 10.5004 14.585 10.4999H5.608C5.15357 10.5 4.70623 10.6126 4.306 10.8279L1.5 12.3359V5.07288C1.50005 4.20806 1.82679 3.37517 2.41479 2.741C3.00279 2.10683 3.80865 1.71818 4.671 1.65288L4.866 1.63888Z" fill="#056BB7"/>
</svg>
