<svg width="24" height="24" viewBox="0 0 24 24" fill="none" xmlns="http://www.w3.org/2000/svg">
<path d="M21.0884 8.07063C20.9667 8.39379 20.8105 8.69019 20.4977 8.87338C20.2548 9.01541 19.9825 9.05143 19.7134 9.09002C19.5793 9.10906 19.5244 9.17339 19.4591 9.28351C19.284 9.57836 19.323 9.8089 19.5341 10.0868C19.9903 10.6863 19.9225 11.2806 19.3908 11.8158C19.2224 11.9856 19.057 12.16 18.8777 12.3175C18.4894 12.6587 17.9542 12.7096 17.5042 12.4585C17.4328 12.4189 17.3506 12.3839 17.2993 12.3242C17.0204 12 16.7281 12.122 16.4266 12.2789C16.3542 12.3165 16.3362 12.3669 16.3244 12.4389C16.2956 12.6144 16.2669 12.7904 16.2222 12.9618C16.085 13.4933 15.6602 13.8437 15.1168 13.8669C14.8302 13.8793 14.5426 13.8793 14.2565 13.8669C13.7058 13.8437 13.2713 13.4799 13.1383 12.9473C13.1234 12.8877 13.0982 12.8264 13.1013 12.7667C13.1192 12.3957 12.9143 12.2228 12.584 12.1276C12.4633 12.0926 12.3847 12.1014 12.2861 12.1713C12.0257 12.3561 11.7756 12.5619 11.4376 12.6005C11.094 12.6396 10.7842 12.5655 10.5197 12.3427C10.2685 12.1312 10.0364 11.8981 9.82371 11.6475C9.49447 11.26 9.44875 10.7305 9.6953 10.2869C9.74153 10.2036 9.78622 10.114 9.85248 10.0477C10.0728 9.82742 10.078 9.60358 9.93261 9.33394C9.85402 9.1878 9.78416 9.1034 9.60901 9.08231C9.24843 9.03908 8.89351 8.96601 8.62692 8.67939C8.42352 8.46069 8.29768 8.20957 8.28946 7.90906C8.28176 7.62861 8.27713 7.34764 8.28638 7.0672C8.3059 6.46616 8.68394 6.02053 9.27103 5.89498C9.36452 5.87491 9.45903 5.85432 9.55354 5.84815C9.75643 5.83477 9.85607 5.73443 9.95161 5.54557C10.0913 5.27027 10.0112 5.08914 9.85094 4.86838C9.37736 4.21589 9.43488 3.64522 10.005 3.07403C10.1596 2.91914 10.3101 2.75962 10.474 2.61502C10.8823 2.25378 11.4314 2.20644 11.8999 2.48329C11.9584 2.51828 12.0267 2.5471 12.0694 2.59701C12.3462 2.92068 12.6395 2.79873 12.9395 2.64178C13.0098 2.60473 13.0345 2.55173 13.0458 2.4802C13.0684 2.33869 13.092 2.19666 13.1203 2.05618C13.2225 1.55446 13.5178 1.22925 14.0094 1.08362C14.033 1.07642 14.0525 1.05686 14.0741 1.04297C14.4706 1.04297 14.8672 1.04297 15.2632 1.04297C15.6782 1.17007 16.0167 1.3898 16.18 1.81639C16.2489 1.99598 16.2812 2.18586 16.3008 2.37574C16.3177 2.54246 16.4045 2.61708 16.5509 2.6989C16.8319 2.85636 17.0543 2.82549 17.2762 2.60988C17.3337 2.55379 17.4102 2.51622 17.4806 2.47505C17.9264 2.21519 18.4688 2.24864 18.8551 2.58569C19.1016 2.80079 19.3343 3.03441 19.5485 3.28192C19.8844 3.66992 19.9194 4.21589 19.6559 4.65843C19.5655 4.81075 19.4561 4.95174 19.358 5.09943C19.3323 5.13802 19.2871 5.19205 19.2979 5.22241C19.3626 5.402 19.4268 5.58417 19.5198 5.74986C19.5819 5.8605 19.7288 5.82859 19.8382 5.84609C20.1885 5.90115 20.5157 5.99378 20.7684 6.26753C20.9312 6.44404 21.0032 6.66325 21.0869 6.87834C21.0884 7.27663 21.0884 7.67338 21.0884 8.07063ZM18.7524 4.08879C18.756 3.98124 18.7144 3.93596 18.6702 3.89222C18.53 3.75174 18.3872 3.61383 18.2511 3.47026C18.1524 3.36631 18.0574 3.36425 17.9444 3.44659C17.7456 3.59119 17.5412 3.72807 17.3414 3.87215C17.1339 4.02189 16.9192 4.05225 16.6891 3.92927C16.387 3.7682 16.0727 3.63904 15.7455 3.53767C15.5149 3.46614 15.3849 3.30353 15.3449 3.0658C15.3043 2.82291 15.2581 2.58106 15.22 2.33818C15.1964 2.1874 15.1296 2.10455 14.9637 2.11176C14.7727 2.11999 14.5811 2.1169 14.39 2.11279C14.2482 2.1097 14.1779 2.17351 14.1563 2.31296C14.1198 2.54915 14.0705 2.7838 14.0356 3.02051C13.9965 3.28244 13.8645 3.4646 13.6087 3.54281C13.2877 3.64059 12.9795 3.7682 12.6842 3.92618C12.4541 4.04968 12.2399 4.02344 12.0319 3.87266C11.8439 3.7363 11.6482 3.61023 11.4638 3.46871C11.3256 3.36271 11.2131 3.35705 11.0914 3.4929C10.9727 3.62515 10.8459 3.75019 10.7154 3.8706C10.5967 3.98021 10.5947 4.08467 10.6877 4.21177C10.8294 4.40474 10.9599 4.60543 11.1001 4.79943C11.2496 5.0068 11.284 5.22241 11.1592 5.45243C10.9958 5.75398 10.8705 6.07096 10.7662 6.39721C10.6923 6.62877 10.532 6.75793 10.2952 6.79858C10.0533 6.84027 9.8119 6.88658 9.56895 6.92414C9.41639 6.94781 9.33935 7.0178 9.34705 7.18246C9.35578 7.37389 9.35219 7.56583 9.34705 7.75725C9.34346 7.89876 9.40561 7.96978 9.54532 7.99139C9.78159 8.02741 10.0153 8.07835 10.2516 8.11283C10.5228 8.15297 10.7036 8.29499 10.7817 8.55846C10.8736 8.86772 10.9953 9.16412 11.1494 9.44663C11.2819 9.69054 11.2532 9.91644 11.0909 10.1367C10.9527 10.3235 10.8274 10.5195 10.6892 10.7063C10.5967 10.8314 10.5916 10.9358 10.7113 11.047C10.8469 11.172 10.9774 11.3032 11.1027 11.4391C11.2126 11.5585 11.3169 11.5575 11.4422 11.4643C11.6287 11.3259 11.8244 11.1998 12.0108 11.0614C12.2301 10.8988 12.4546 10.8684 12.6991 11.0022C12.9811 11.1571 13.2769 11.2785 13.5856 11.3701C13.8584 11.4509 13.9971 11.6408 14.0356 11.9202C14.0669 12.1503 14.1193 12.3777 14.1537 12.6072C14.1748 12.7472 14.2446 12.8105 14.3864 12.8074C14.5775 12.8033 14.7696 12.7997 14.9601 12.8084C15.1235 12.8161 15.1954 12.74 15.219 12.5866C15.2555 12.3504 15.3058 12.1158 15.3408 11.8791C15.3782 11.6218 15.5164 11.453 15.7614 11.3768C16.0814 11.277 16.3901 11.1504 16.6855 10.9919C16.9151 10.8689 17.1303 10.8988 17.3383 11.049C17.532 11.1895 17.7333 11.3192 17.9244 11.4628C18.0605 11.5652 18.1673 11.5513 18.2793 11.4267C18.3933 11.2996 18.5146 11.1777 18.6419 11.064C18.7775 10.943 18.7739 10.8298 18.6676 10.6914C18.5346 10.518 18.4211 10.3291 18.2886 10.1557C18.1108 9.92365 18.0846 9.68643 18.2264 9.43016C18.379 9.15435 18.4966 8.86309 18.5865 8.56103C18.6686 8.28573 18.8561 8.14885 19.134 8.10974C19.3569 8.07835 19.5768 8.02484 19.7997 7.99499C19.9579 7.97389 20.0293 7.90237 20.0236 7.74027C20.017 7.55554 20.0154 7.37029 20.0242 7.18607C20.0319 7.02191 19.9543 6.94987 19.8023 6.92569C19.5598 6.88709 19.3184 6.83975 19.076 6.80013C18.8381 6.76102 18.6748 6.63392 18.6019 6.40235C18.4991 6.07559 18.3723 5.75913 18.211 5.45707C18.0882 5.22705 18.1149 5.01144 18.2644 4.80303C18.4036 4.60852 18.5392 4.41143 18.6758 4.21486C18.7108 4.16443 18.7519 4.11658 18.7524 4.08879Z" fill="#5D6679"/>
<path d="M3.79404 7.69424C4.09658 7.68497 4.40528 7.80281 4.65542 8.02511C4.99751 8.32923 5.31289 8.42597 5.75513 8.17897C5.99706 8.04415 6.1455 7.93609 6.16142 7.65873C6.17016 7.50281 6.2056 7.34689 6.24515 7.19509C6.31243 6.93677 6.59186 6.76027 6.84251 6.80607C7.10242 6.85341 7.31352 7.10195 7.27808 7.36851C7.22415 7.77451 7.14505 8.17743 7.068 8.58035C7.02999 8.78001 6.8908 8.90608 6.70332 8.96114C6.26261 9.09133 5.84245 9.26577 5.43924 9.48602C5.22711 9.6018 5.01959 9.5771 4.82287 9.43765C4.54961 9.24416 4.27635 9.05068 4.00001 8.8608C3.77915 8.709 3.64817 8.72186 3.45607 8.9102C3.26602 9.09751 3.07648 9.28533 2.89106 9.47727C2.72002 9.65377 2.7082 9.78602 2.84688 9.98876C3.0282 10.2538 3.21054 10.5193 3.40213 10.7771C3.58294 11.02 3.59269 11.2624 3.44477 11.5222C3.24804 11.868 3.09241 12.2329 2.99225 12.6183C2.91366 12.9224 2.71693 13.0732 2.41491 13.119C2.10467 13.1658 1.79546 13.2224 1.48727 13.2821C1.24175 13.3294 1.15905 13.4293 1.15597 13.6727C1.15238 13.9464 1.15238 14.2207 1.15597 14.4945C1.15905 14.7425 1.25305 14.8475 1.50525 14.8927C1.82114 14.9493 2.13703 15.0065 2.45343 15.0584C2.72207 15.1027 2.90184 15.2406 2.97684 15.5102C3.09087 15.9204 3.25472 16.3104 3.46172 16.682C3.59629 16.9228 3.57523 17.1497 3.41395 17.372C3.22133 17.638 3.03385 17.9072 2.84843 18.1784C2.70871 18.3832 2.71847 18.5144 2.88849 18.6904C3.08316 18.8921 3.28091 19.0912 3.48329 19.2857C3.65125 19.4468 3.78326 19.4566 3.97844 19.3228C4.25478 19.1339 4.52855 18.941 4.80027 18.7449C5.01651 18.589 5.23841 18.5694 5.47109 18.6996C5.8481 18.9106 6.24412 19.0758 6.65914 19.1936C6.91956 19.2677 7.05465 19.4442 7.09831 19.7041C7.15173 20.0211 7.2072 20.3376 7.2637 20.654C7.3125 20.9273 7.41266 21.0117 7.69362 21.0137C7.94633 21.0153 8.19956 21.0153 8.45227 21.0137C8.72707 21.0117 8.82261 20.9376 8.875 20.6715C8.9315 20.3828 8.9916 20.0947 9.02909 19.8034C9.07378 19.4581 9.23866 19.2456 9.5864 19.1592C9.9516 19.0686 10.2962 18.9152 10.6224 18.7259C10.889 18.571 11.135 18.5833 11.3831 18.7712C11.6338 18.9605 11.8942 19.137 12.1536 19.3151C12.3693 19.4633 12.4946 19.452 12.6801 19.2703C12.8706 19.0835 13.0591 18.8947 13.2456 18.7037C13.4233 18.5216 13.4377 18.3837 13.2954 18.1758C13.11 17.9046 12.9215 17.636 12.7299 17.3694C12.5696 17.1466 12.5491 16.9197 12.6857 16.6789C12.8963 16.3089 13.0545 15.9163 13.1701 15.5072C13.2435 15.2483 13.4151 15.1063 13.676 15.0615C13.9857 15.0085 14.2944 14.9509 14.6042 14.8989C14.7182 14.8799 14.8343 14.8624 14.9499 14.8953C15.1861 14.9632 15.349 15.1753 15.3454 15.4099C15.3418 15.6415 15.1748 15.8638 14.9427 15.9183C14.7239 15.9698 14.5009 16.0089 14.278 16.0392C14.1619 16.0552 14.0921 16.0958 14.0602 16.2147C14.0304 16.3264 14.0012 16.4478 13.9349 16.5384C13.7079 16.8487 13.789 17.1024 14.0248 17.3648C14.1784 17.5362 14.3063 17.7358 14.3777 17.9617C14.5287 18.4387 14.4675 18.8854 14.1522 19.2775C13.9031 19.5868 13.6149 19.8626 13.317 20.123C12.8239 20.5542 12.2055 20.599 11.6492 20.2552C11.4694 20.1441 11.2943 20.0226 11.1273 19.893C11.0015 19.7952 10.8936 19.7648 10.7431 19.8523C10.5911 19.9408 10.4231 20.0108 10.2536 20.0571C10.0851 20.1034 10.0322 20.2022 10.0122 20.3612C9.98447 20.5779 9.94543 20.794 9.89304 21.006C9.7333 21.6487 9.22171 22.0604 8.56219 22.0799C8.26839 22.0887 7.97458 22.0835 7.68078 22.082C6.88926 22.0779 6.35198 21.6256 6.20919 20.8449C6.17991 20.6834 6.13934 20.5223 6.12855 20.3597C6.11725 20.1919 6.04688 20.1086 5.8856 20.0581C5.69144 19.9974 5.50499 19.9079 5.32059 19.8199C5.23481 19.7792 5.17317 19.7844 5.09716 19.8394C4.88091 19.9948 4.66621 20.1549 4.43815 20.2907C3.92862 20.5938 3.29889 20.5408 2.85613 20.1466C2.57054 19.8924 2.2978 19.6213 2.04252 19.3367C1.62236 18.8674 1.57048 18.2432 1.89459 17.7019C2.02403 17.4852 2.17453 17.2804 2.32348 17.0761C2.38307 16.9943 2.39128 16.9279 2.34762 16.8343C2.2526 16.63 2.16734 16.4211 2.08823 16.2101C2.05022 16.1087 1.99526 16.0583 1.88535 16.0423C1.65575 16.0094 1.42615 15.9703 1.20015 15.9188C0.532409 15.7665 0.106599 15.2396 0.0917035 14.5511C0.0855398 14.2567 0.088108 13.9624 0.0906762 13.668C0.0973536 12.9106 0.5509 12.3672 1.29106 12.2277C1.52579 12.1835 1.79494 12.1984 1.98653 12.0831C2.18274 11.9648 2.15706 11.6519 2.29061 11.4553C2.4108 11.2783 2.36971 11.1383 2.24387 10.9819C2.10313 10.8064 1.97729 10.6171 1.8648 10.422C1.58332 9.93267 1.6352 9.31929 1.99681 8.8855C2.25979 8.57006 2.5577 8.28652 2.86589 8.01585C3.11757 7.79407 3.41703 7.69166 3.79404 7.69424Z" fill="#5D6679"/>
<path d="M8.1651 17.6515C5.95284 17.6381 4.32459 15.8319 4.5244 13.7294C4.69442 11.9386 6.2225 10.5374 8.03156 10.5137C8.33615 10.5096 8.58218 10.7247 8.60375 11.0139C8.62533 11.2974 8.406 11.5558 8.09627 11.5712C7.47682 11.6026 6.91695 11.7786 6.44183 12.1913C5.64003 12.887 5.36678 13.9867 5.74687 14.9916C6.11207 15.9575 7.06128 16.5966 8.10809 16.5822C9.40966 16.5637 10.458 15.5731 10.5592 14.2656C10.5746 14.068 10.5751 13.8662 10.7292 13.7114C10.8756 13.5642 11.1165 13.5076 11.2973 13.5909C11.5146 13.6908 11.6342 13.8637 11.6378 14.1071C11.6584 15.5047 10.7087 16.8982 9.39785 17.3994C8.9669 17.5646 8.52311 17.6587 8.1651 17.6515Z" fill="#5D6679"/>
<path d="M14.6847 10.0082C13.2773 10.0082 12.1447 8.87664 12.1406 7.46668C12.1365 6.05312 13.283 4.90405 14.6929 4.9092C16.0926 4.91434 17.2329 6.06289 17.2303 7.46462C17.2278 8.87046 16.0885 10.0082 14.6847 10.0082ZM14.6529 8.93839C15.4706 8.95588 16.1496 8.29876 16.163 7.47594C16.1763 6.67319 15.5245 6.00526 14.7027 5.9785C13.9096 5.95277 13.2234 6.62122 13.208 7.43529C13.1931 8.2509 13.8372 8.92089 14.6529 8.93839Z" fill="#5D6679"/>
</svg>
