<svg width="23" height="23" viewBox="0 0 23 23" fill="none" xmlns="http://www.w3.org/2000/svg">
<path d="M21.0845 7.06673C20.9628 7.38989 20.8066 7.68629 20.4938 7.86948C20.2509 8.0115 19.9786 8.04752 19.7095 8.08612C19.5754 8.10516 19.5205 8.16948 19.4552 8.2796C19.2801 8.57446 19.3191 8.80499 19.5302 9.08287C19.9863 9.68236 19.9185 10.2767 19.3869 10.8119C19.2184 10.9817 19.0531 11.1561 18.8738 11.3136C18.4855 11.6548 17.9503 11.7057 17.5003 11.4546C17.4289 11.415 17.3467 11.38 17.2954 11.3203C17.0165 10.9961 16.7242 11.118 16.4227 11.275C16.3503 11.3126 16.3323 11.363 16.3205 11.435C16.2917 11.6105 16.2629 11.7865 16.2183 11.9578C16.0811 12.4894 15.6563 12.8398 15.1129 12.863C14.8263 12.8753 14.5386 12.8753 14.2525 12.863C13.7019 12.8398 13.2674 12.476 13.1343 11.9434C13.1194 11.8837 13.0943 11.8225 13.0974 11.7628C13.1153 11.3918 12.9104 11.2189 12.5801 11.1237C12.4594 11.0887 12.3808 11.0975 12.2822 11.1674C12.0218 11.3522 11.7717 11.558 11.4337 11.5966C11.09 11.6357 10.7803 11.5616 10.5158 11.3388C10.2646 11.1273 10.0325 10.8942 9.81981 10.6436C9.49056 10.2561 9.44485 9.72661 9.6914 9.28304C9.73762 9.19968 9.78231 9.11014 9.84857 9.04376C10.0689 8.82352 10.0741 8.59967 9.9287 8.33003C9.85011 8.18389 9.78026 8.0995 9.6051 8.0784C9.24453 8.03517 8.8896 7.9621 8.62302 7.67548C8.41962 7.45678 8.29377 7.20567 8.28555 6.90515C8.27785 6.6247 8.27323 6.34374 8.28247 6.06329C8.30199 5.46226 8.68003 5.01663 9.26713 4.89107C9.36061 4.871 9.45512 4.85042 9.54963 4.84424C9.75252 4.83086 9.85217 4.73052 9.9477 4.54167C10.0874 4.26637 10.0073 4.08523 9.84703 3.86448C9.37345 3.21198 9.43098 2.64131 10.0011 2.07012C10.1557 1.91523 10.3062 1.75571 10.4701 1.61111C10.8784 1.24988 11.4275 1.20254 11.896 1.47938C11.9545 1.51437 12.0228 1.54319 12.0655 1.5931C12.3423 1.91678 12.6356 1.79482 12.9356 1.63787C13.0059 1.60082 13.0306 1.54782 13.0419 1.47629C13.0645 1.33478 13.0881 1.19276 13.1164 1.05228C13.2186 0.550558 13.5139 0.225342 14.0055 0.0797146C14.0291 0.0725104 14.0486 0.0529563 14.0702 0.0390625C14.4667 0.0390625 14.8633 0.0390625 15.2593 0.0390625C15.6743 0.166165 16.0128 0.385892 16.1761 0.812481C16.245 0.992071 16.2773 1.18195 16.2968 1.37183C16.3138 1.53856 16.4006 1.61317 16.547 1.69499C16.828 1.85245 17.0504 1.82158 17.2723 1.60597C17.3298 1.54988 17.4063 1.51231 17.4767 1.47115C17.9225 1.21128 18.4649 1.24473 18.8512 1.58178C19.0977 1.79688 19.3304 2.0305 19.5446 2.27801C19.8805 2.66601 19.9155 3.21198 19.652 3.65453C19.5616 3.80684 19.4522 3.94784 19.354 4.09552C19.3284 4.13412 19.2832 4.18815 19.294 4.21851C19.3587 4.3981 19.4229 4.58026 19.5158 4.74596C19.578 4.85659 19.7249 4.82469 19.8343 4.84218C20.1846 4.89724 20.5118 4.98987 20.7645 5.26363C20.9273 5.44013 20.9992 5.65934 21.083 5.87444C21.0845 6.27273 21.0845 6.66947 21.0845 7.06673ZM18.7485 3.08488C18.7521 2.97733 18.7105 2.93205 18.6663 2.88831C18.5261 2.74783 18.3833 2.60992 18.2471 2.46635C18.1485 2.36241 18.0535 2.36035 17.9405 2.44268C17.7417 2.58728 17.5373 2.72416 17.3375 2.86824C17.13 3.01799 16.9153 3.04835 16.6852 2.92536C16.3831 2.7643 16.0688 2.63514 15.7416 2.53376C15.511 2.46224 15.381 2.29963 15.341 2.06189C15.3004 1.81901 15.2542 1.57715 15.2161 1.33427C15.1925 1.1835 15.1257 1.10065 14.9598 1.10785C14.7688 1.11609 14.5772 1.113 14.3861 1.10888C14.2443 1.10579 14.174 1.1696 14.1524 1.30905C14.1159 1.54525 14.0666 1.7799 14.0317 2.01661C13.9926 2.27853 13.8606 2.46069 13.6048 2.53891C13.2838 2.63668 12.9756 2.7643 12.6803 2.92227C12.4502 3.04577 12.236 3.01953 12.028 2.86876C11.84 2.73239 11.6443 2.60632 11.4599 2.46481C11.3217 2.3588 11.2092 2.35314 11.0875 2.48899C10.9688 2.62124 10.842 2.74629 10.7115 2.8667C10.5928 2.9763 10.5908 3.08077 10.6838 3.20787C10.8255 3.40084 10.956 3.60152 11.0962 3.79552C11.2457 4.0029 11.2801 4.21851 11.1553 4.44853C10.9919 4.75007 10.8666 5.06706 10.7623 5.3933C10.6884 5.62487 10.5281 5.75403 10.2913 5.79468C10.0494 5.83636 9.80799 5.88267 9.56504 5.92024C9.41249 5.94391 9.33544 6.01389 9.34315 6.17856C9.35188 6.36998 9.34828 6.56192 9.34315 6.75335C9.33955 6.89486 9.4017 6.96587 9.54141 6.98748C9.77769 7.0235 10.0114 7.07445 10.2477 7.10892C10.5189 7.14906 10.6997 7.29109 10.7778 7.55455C10.8697 7.86382 10.9914 8.16022 11.1455 8.44272C11.278 8.68664 11.2493 8.91254 11.087 9.13278C10.9488 9.31957 10.8235 9.51563 10.6853 9.70243C10.5928 9.82747 10.5877 9.93193 10.7074 10.0431C10.843 10.1681 10.9734 10.2993 11.0988 10.4352C11.2087 10.5546 11.313 10.5535 11.4383 10.4604C11.6247 10.322 11.8204 10.1959 12.0069 10.0575C12.2262 9.89488 12.4507 9.86452 12.6952 9.99831C12.9772 10.1532 13.273 10.2746 13.5817 10.3662C13.8545 10.447 13.9932 10.6369 14.0317 10.9163C14.063 11.1463 14.1154 11.3738 14.1498 11.6033C14.1709 11.7433 14.2407 11.8066 14.3825 11.8035C14.5736 11.7994 14.7657 11.7957 14.9562 11.8045C15.1196 11.8122 15.1915 11.7361 15.2151 11.5827C15.2516 11.3465 15.3019 11.1119 15.3368 10.8752C15.3743 10.6179 15.5125 10.4491 15.7575 10.3729C16.0775 10.2731 16.3862 10.1465 16.6816 9.98802C16.9112 9.86503 17.1264 9.89488 17.3344 10.0451C17.528 10.1856 17.7294 10.3153 17.9205 10.4589C18.0566 10.5613 18.1634 10.5474 18.2754 10.4228C18.3894 10.2957 18.5106 10.1738 18.638 10.0601C18.7736 9.93913 18.77 9.82592 18.6637 9.6875C18.5307 9.51409 18.4172 9.32524 18.2846 9.15182C18.1069 8.91974 18.0807 8.68252 18.2225 8.42626C18.375 8.15044 18.4927 7.85919 18.5826 7.55713C18.6647 7.28182 18.8522 7.14494 19.1301 7.10584C19.353 7.07445 19.5729 7.02093 19.7958 6.99108C19.954 6.96999 20.0254 6.89846 20.0197 6.73637C20.0131 6.55163 20.0115 6.36638 20.0202 6.18216C20.0279 6.01801 19.9504 5.94597 19.7984 5.92178C19.5559 5.88319 19.3145 5.83584 19.0721 5.79622C18.8342 5.75711 18.6709 5.63001 18.598 5.39845C18.4952 5.07169 18.3684 4.75522 18.2071 4.45316C18.0843 4.22314 18.111 4.00753 18.2605 3.79912C18.3997 3.60461 18.5353 3.40753 18.6719 3.21095C18.7069 3.16053 18.748 3.11267 18.7485 3.08488Z" fill="#056BB7"/>
<path d="M3.79209 6.69228C4.09462 6.68302 4.40333 6.80086 4.65347 7.02316C4.99556 7.32728 5.31093 7.42402 5.75318 7.17702C5.9951 7.0422 6.14355 6.93414 6.15947 6.65678C6.1682 6.50086 6.20364 6.34494 6.24319 6.19314C6.31048 5.93482 6.5899 5.75832 6.84056 5.80411C7.10046 5.85145 7.31157 6.1 7.27613 6.36655C7.2222 6.77256 7.1431 7.17548 7.06605 7.5784C7.02804 7.77805 6.88884 7.90413 6.70136 7.95919C6.26066 8.08938 5.8405 8.26382 5.43729 8.48406C5.22515 8.59984 5.01764 8.57514 4.82092 8.43569C4.54766 8.24221 4.2744 8.04873 3.99806 7.85884C3.77719 7.70704 3.64621 7.71991 3.45411 7.90824C3.26406 8.09555 3.07453 8.28338 2.88911 8.47532C2.71806 8.65182 2.70625 8.78407 2.84493 8.98681C3.02625 9.25182 3.20859 9.51735 3.40018 9.77515C3.58098 10.018 3.59074 10.2604 3.44281 10.5203C3.24609 10.8661 3.09045 11.2309 2.99029 11.6163C2.91171 11.9205 2.71498 12.0712 2.41296 12.117C2.10272 12.1638 1.7935 12.2205 1.48532 12.2801C1.2398 12.3275 1.1571 12.4273 1.15402 12.6707C1.15042 12.9445 1.15042 13.2187 1.15402 13.4925C1.1571 13.7405 1.2511 13.8455 1.5033 13.8908C1.81919 13.9474 2.13508 14.0045 2.45148 14.0565C2.72012 14.1007 2.89989 14.2386 2.97488 14.5083C3.08891 14.9184 3.25276 15.3085 3.45976 15.68C3.59434 15.9208 3.57328 16.1478 3.41199 16.3701C3.21938 16.6361 3.0319 16.9052 2.84647 17.1764C2.70676 17.3812 2.71652 17.5124 2.88654 17.6884C3.08121 17.8901 3.27896 18.0893 3.48134 18.2838C3.6493 18.4449 3.7813 18.4546 3.97649 18.3208C4.25283 18.132 4.5266 17.939 4.79832 17.743C5.01456 17.587 5.23645 17.5675 5.46913 17.6977C5.84615 17.9087 6.24217 18.0738 6.65719 18.1917C6.91761 18.2658 7.0527 18.4423 7.09635 18.7021C7.14977 19.0191 7.20525 19.3356 7.26175 19.6521C7.31054 19.9253 7.41071 20.0097 7.69167 20.0118C7.94438 20.0133 8.19761 20.0133 8.45032 20.0118C8.72512 20.0097 8.82065 19.9356 8.87305 19.6696C8.92955 19.3809 8.98964 19.0927 9.02714 18.8015C9.07183 18.4562 9.23671 18.2437 9.58444 18.1572C9.94964 18.0666 10.2943 17.9133 10.6205 17.7239C10.887 17.569 11.1331 17.5814 11.3812 17.7692C11.6318 17.9586 11.8922 18.1351 12.1516 18.3131C12.3674 18.4613 12.4927 18.45 12.6781 18.2684C12.8687 18.0816 13.0572 17.8927 13.2436 17.7018C13.4214 17.5196 13.4357 17.3817 13.2935 17.1738C13.108 16.9026 12.9195 16.634 12.7279 16.3675C12.5677 16.1447 12.5471 15.9177 12.6838 15.6769C12.8944 15.3069 13.0526 14.9143 13.1681 14.5052C13.2416 14.2464 13.4131 14.1043 13.6741 14.0596C13.9838 14.0066 14.2925 13.9489 14.6022 13.897C14.7163 13.8779 14.8323 13.8604 14.9479 13.8934C15.1842 13.9613 15.347 14.1733 15.3434 14.4079C15.3398 14.6395 15.1729 14.8618 14.9407 14.9164C14.7219 14.9678 14.499 15.0069 14.2761 15.0373C14.16 15.0532 14.0901 15.0939 14.0583 15.2128C14.0285 15.3244 13.9992 15.4459 13.9329 15.5364C13.7059 15.8467 13.7871 16.1004 14.0228 16.3629C14.1764 16.5342 14.3043 16.7339 14.3757 16.9598C14.5267 17.4368 14.4656 17.8834 14.1502 18.2756C13.9011 18.5848 13.6129 18.8606 13.315 19.121C12.8219 19.5522 12.2035 19.597 11.6472 19.2533C11.4675 19.1421 11.2923 19.0207 11.1254 18.891C10.9995 18.7932 10.8917 18.7629 10.7412 18.8503C10.5891 18.9389 10.4212 19.0088 10.2517 19.0552C10.0832 19.1015 10.0303 19.2003 10.0103 19.3593C9.98252 19.5759 9.94348 19.792 9.89109 20.004C9.73134 20.6468 9.21976 21.0584 8.56024 21.078C8.26643 21.0867 7.97263 21.0816 7.67883 21.08C6.8873 21.0759 6.35003 20.6236 6.20724 19.843C6.17796 19.6814 6.13738 19.5203 6.1266 19.3577C6.1153 19.19 6.04493 19.1066 5.88364 19.0562C5.68949 18.9955 5.50303 18.9059 5.31864 18.8179C5.23286 18.7773 5.17122 18.7824 5.0952 18.8375C4.87896 18.9929 4.66426 19.1529 4.4362 19.2888C3.92666 19.5919 3.29694 19.5389 2.85418 19.1447C2.56859 18.8905 2.29585 18.6193 2.04057 18.3347C1.62041 17.8654 1.56853 17.2412 1.89264 16.6999C2.02208 16.4833 2.17257 16.2785 2.32153 16.0742C2.38111 15.9923 2.38933 15.926 2.34567 15.8323C2.25065 15.628 2.16538 15.4191 2.08628 15.2081C2.04827 15.1068 1.99331 15.0563 1.88339 15.0404C1.65379 15.0074 1.4242 14.9683 1.19819 14.9169C0.530456 14.7646 0.104646 14.2376 0.0897504 13.5491C0.0835867 13.2548 0.0861549 12.9604 0.0887231 12.6661C0.0954005 11.9086 0.548947 11.3652 1.28911 11.2258C1.52384 11.1815 1.79299 11.1964 1.98458 11.0812C2.18079 10.9628 2.15511 10.6499 2.28866 10.4534C2.40885 10.2764 2.36776 10.1364 2.24191 9.97996C2.10118 9.80448 1.97533 9.61512 1.86285 9.42009C1.58137 8.93072 1.63325 8.31734 1.99485 7.88354C2.25784 7.5681 2.55575 7.28457 2.86394 7.0139C3.11562 6.79211 3.41508 6.68971 3.79209 6.69228Z" fill="#056BB7"/>
<path d="M8.1612 16.6457C5.94894 16.6323 4.32069 14.8261 4.52049 12.7235C4.69051 10.9328 6.2186 9.53154 8.02765 9.50787C8.33224 9.50375 8.57827 9.71885 8.59985 10.008C8.62142 10.2916 8.40209 10.5499 8.09237 10.5653C7.47291 10.5967 6.91304 10.7727 6.43792 11.1854C5.63613 11.8811 5.36287 12.9808 5.74296 13.9858C6.10816 14.9516 7.05738 15.5908 8.10418 15.5764C9.40575 15.5578 10.4541 14.5673 10.5553 13.2597C10.5707 13.0621 10.5712 12.8604 10.7253 12.7055C10.8717 12.5583 11.1126 12.5017 11.2934 12.5851C11.5107 12.6849 11.6303 12.8578 11.6339 13.1012C11.6545 14.4988 10.7048 15.8923 9.39394 16.3935C8.96299 16.5587 8.51921 16.6529 8.1612 16.6457Z" fill="#056BB7"/>
<path d="M14.6808 9.00527C13.2734 9.00527 12.1408 7.87371 12.1367 6.46375C12.1326 5.05019 13.2791 3.90112 14.689 3.90627C16.0887 3.91141 17.229 5.05996 17.2264 6.46169C17.2238 7.86753 16.0846 9.00527 14.6808 9.00527ZM14.649 7.93546C15.4667 7.95295 16.1457 7.29583 16.1591 6.47301C16.1724 5.67026 15.5206 5.00233 14.6988 4.97557C13.9057 4.94984 13.2195 5.61829 13.2041 6.43236C13.1892 7.24797 13.8333 7.91796 14.649 7.93546Z" fill="#056BB7"/>
</svg>
