<?xml version="1.0" encoding="UTF-8"?>
<svg version="1.1" xmlns="http://www.w3.org/2000/svg" width="48" height="48">
<path d="M0 0 C1.2065625 0.0309375 1.2065625 0.0309375 2.4375 0.0625 C3.37173645 3.07281744 3.48199911 3.92900268 2.4375 7.0625 C3.81242804 10.2293838 3.81242804 10.2293838 5.4375 13.0625 C6.64831851 9.95709074 6.64831851 9.95709074 6.4375 6.0625 C7.7575 5.7325 9.0775 5.4025 10.4375 5.0625 C12.05699011 7.63463134 12.48158751 8.73919159 12.0625 11.8125 C11.85625 12.555 11.65 13.2975 11.4375 14.0625 C13.06243901 12.94140434 13.06243901 12.94140434 14.4375 11.0625 C14.68798636 7.93700983 14.68798636 7.93700983 14.4375 5.0625 C16.0875 4.7325 17.7375 4.4025 19.4375 4.0625 C20 6 20 6 20.4375 8.0625 C20.1075 8.3925 19.7775 8.7225 19.4375 9.0625 C18.57991252 15.70880297 18.02390881 22.38742095 17.4375 29.0625 C11.20953104 31.79039371 6.14118633 32.52927947 -0.625 32.4375 C-1.91374023 32.45490234 -1.91374023 32.45490234 -3.22851562 32.47265625 C-8.74164098 32.447386 -12.71229948 31.74287397 -17.5625 29.0625 C-19.81302041 24.95285404 -19.6828516 21.07642588 -19.56640625 16.51953125 C-19.55976081 12.33954908 -20.07763463 8.20983058 -20.5625 4.0625 C-18.0875 4.5575 -18.0875 4.5575 -15.5625 5.0625 C-15.418125 6.17625 -15.27375 7.29 -15.125 8.4375 C-14.77877965 11.88392047 -14.77877965 11.88392047 -13.5625 14.0625 C-13.2325 11.4225 -12.9025 8.7825 -12.5625 6.0625 C-11.2425 5.7325 -9.9225 5.4025 -8.5625 5.0625 C-8.418125 5.825625 -8.27375 6.58875 -8.125 7.375 C-7.5992406 10.14422908 -7.5992406 10.14422908 -6.5625 13.0625 C-3.55782649 8.93107392 -3.36876153 6.09970035 -3.5625 1.0625 C-2.5625 0.0625 -2.5625 0.0625 0 0 Z " fill="#F2C213" transform="translate(24.5625,7.9375)"/>
<path d="M0 0 C2.475 0.495 2.475 0.495 5 1 C5.16858098 3.0831793 5.33479255 5.16655044 5.5 7.25 C5.5928125 8.41015625 5.685625 9.5703125 5.78125 10.765625 C5.99000791 13.85225977 6 16.90770732 6 20 C6.66 20 7.32 20 8 20 C8.33 19.01 8.66 18.02 9 17 C9.99 17 10.98 17 12 17 C12 18.65 12 20.3 12 22 C13.65 22 15.3 22 17 22 C17 20.35 17 18.7 17 17 C18.32 16.34 19.64 15.68 21 15 C23 17 23 17 23 21 C24.65 20.67 26.3 20.34 28 20 C28 19.01 28 18.02 28 17 C29.32 17 30.64 17 32 17 C32.495 18.485 32.495 18.485 33 20 C33.928125 18.515 33.928125 18.515 34.875 17 C35.57625 16.01 36.2775 15.02 37 14 C37.66 14 38.32 14 39 14 C38.67 17.63 38.34 21.26 38 25 C31.77203104 27.72789371 26.70368633 28.46677947 19.9375 28.375 C19.07833984 28.38660156 18.21917969 28.39820312 17.33398438 28.41015625 C11.82085902 28.384886 7.85020052 27.68037397 3 25 C0.74947959 20.89035404 0.8796484 17.01392588 0.99609375 12.45703125 C1.00273919 8.27704908 0.48486537 4.14733058 0 0 Z " fill="#C68E09" transform="translate(4,12)"/>
<path d="M0 0 C0.66 0 1.32 0 2 0 C2 1.98 2 3.96 2 6 C1.01 6 0.02 6 -1 6 C-1 6.66 -1 7.32 -1 8 C-5.55585155 9.7608506 -9.37471059 10.27074591 -14.25 10.25 C-15.47203125 10.25515625 -16.6940625 10.2603125 -17.953125 10.265625 C-21 10 -21 10 -23 8 C-22.01 8 -21.02 8 -20 8 C-20 6.35 -20 4.7 -20 3 C-18.68 2.34 -17.36 1.68 -16 1 C-14 3 -14 3 -14 7 C-12.35 6.67 -10.7 6.34 -9 6 C-9 5.01 -9 4.02 -9 3 C-7.68 3 -6.36 3 -5 3 C-4.67 3.99 -4.34 4.98 -4 6 C-3.38125 5.01 -2.7625 4.02 -2.125 3 C-1.42375 2.01 -0.7225 1.02 0 0 Z " fill="#DDAC10" transform="translate(41,26)"/>
<path d="M0 0 C2.475 0.495 2.475 0.495 5 1 C5.33 5.29 5.66 9.58 6 14 C4.68 14 3.36 14 2 14 C-0.29612756 4.58997722 -0.29612756 4.58997722 0 0 Z " fill="#C2910B" transform="translate(4,12)"/>
<path d="M0 0 C1.2065625 0.0309375 1.2065625 0.0309375 2.4375 0.0625 C3.81182457 3.88006824 3.11725039 7.13505329 2.4375 11.0625 C0.4575 11.0625 -1.5225 11.0625 -3.5625 11.0625 C-3.58938151 9.41675434 -3.60884123 7.77088587 -3.625 6.125 C-3.63660156 5.20847656 -3.64820312 4.29195312 -3.66015625 3.34765625 C-3.52086326 0.08820018 -3.27895972 0.07997463 0 0 Z " fill="#AC7507" transform="translate(24.5625,7.9375)"/>
<path d="M0 0 C1.32 0.33 2.64 0.66 4 1 C4.33 4.3 4.66 7.6 5 11 C3.02 11.33 1.04 11.66 -1 12 C-2.24834144 9.50331711 -1.95155125 8.18670849 -1.625 5.4375 C-1.53476563 4.63183594 -1.44453125 3.82617188 -1.3515625 2.99609375 C-1 1 -1 1 0 0 Z " fill="#B68008" transform="translate(13,13)"/>
<path d="M0 0 C1.32 0.66 2.64 1.32 4 2 C4 4.97 4 7.94 4 11 C2.35 11.33 0.7 11.66 -1 12 C-3 9 -3 9 -2.625 7.0625 C-2.41875 6.381875 -2.2125 5.70125 -2 5 C-2 3.68 -2 2.36 -2 1 C-1.34 0.67 -0.68 0.34 0 0 Z " fill="#BB8708" transform="translate(33,13)"/>
<path d="M0 0 C0.99 0.33 1.98 0.66 3 1 C3.33 3.31 3.66 5.62 4 8 C5.98 8 7.96 8 10 8 C10 8.66 10 9.32 10 10 C10.66 10.33 11.32 10.66 12 11 C7.545 11.495 7.545 11.495 3 12 C0.8008587 7.60171741 0.48144941 4.81449408 0 0 Z " fill="#C08E0B" transform="translate(5,26)"/>
<path d="M0 0 C1.32 0 2.64 0 4 0 C4.5625 1.9375 4.5625 1.9375 5 4 C4.67 4.33 4.34 4.66 4 5 C3.47071924 7.31282351 3.03666285 9.63721913 2.59765625 11.96875 C2.30181641 12.97421875 2.30181641 12.97421875 2 14 C1.01 14.495 1.01 14.495 0 15 C0 14.01 0 13.02 0 12 C-0.66 11.67 -1.32 11.34 -2 11 C-1.85957123 9.35369672 -1.71250671 7.70795821 -1.5625 6.0625 C-1.48128906 5.14597656 -1.40007813 4.22945312 -1.31640625 3.28515625 C-1 1 -1 1 0 0 Z " fill="#B67B06" transform="translate(40,12)"/>
<path d="M0 0 C0.66 0 1.32 0 2 0 C2 1.98 2 3.96 2 6 C1.01 6 0.02 6 -1 6 C-1 6.66 -1 7.32 -1 8 C-2.98 8.33 -4.96 8.66 -7 9 C-9 6 -9 6 -9 3 C-7.68 3 -6.36 3 -5 3 C-4.67 3.99 -4.34 4.98 -4 6 C-3.38125 5.01 -2.7625 4.02 -2.125 3 C-1.42375 2.01 -0.7225 1.02 0 0 Z " fill="#C26C43" transform="translate(41,26)"/>
<path d="M0 0 C2.64 0 5.28 0 8 0 C8.66 1.65 9.32 3.3 10 5 C9.07767578 4.98259766 9.07767578 4.98259766 8.13671875 4.96484375 C6.92435547 4.95130859 6.92435547 4.95130859 5.6875 4.9375 C4.88699219 4.92589844 4.08648437 4.91429687 3.26171875 4.90234375 C0.83138666 4.90342145 0.83138666 4.90342145 -2 6 C-1.34 4.02 -0.68 2.04 0 0 Z " fill="#E2B016" transform="translate(20,18)"/>
<path d="M0 0 C1.32 0.66 2.64 1.32 4 2 C3.67 3.65 3.34 5.3 3 7 C1.68 7 0.36 7 -1 7 C-1.625 4.625 -1.625 4.625 -2 2 C-1.34 1.34 -0.68 0.68 0 0 Z " fill="#16736C" transform="translate(23,27)"/>
<path d="M0 0 C2 3 2 3 1.8125 6.5625 C1 10 1 10 -2 12 C-2 10.68 -2 9.36 -2 8 C-2.99 7.67 -3.98 7.34 -5 7 C-4.01 7 -3.02 7 -2 7 C-1.855625 6.030625 -1.71125 5.06125 -1.5625 4.0625 C-1 1 -1 1 0 0 Z " fill="#DAA513" transform="translate(38,21)"/>
<path d="M0 0 C2.5 1.25 2.5 1.25 5 3 C5 7 5 7 3.625 8.75 C2 10 2 10 0 10 C-1.60339848 6.88228073 -2.18974141 5.60988311 -1.125 2.1875 C-0.75375 1.465625 -0.3825 0.74375 0 0 Z " fill="#E0AC16" transform="translate(10,22)"/>
<path d="M0 0 C0.99 0 1.98 0 3 0 C3 1.65 3 3.3 3 5 C4.32 5.66 5.64 6.32 7 7 C5.35 7 3.7 7 2 7 C2 6.34 2 5.68 2 5 C0.02 5 -1.96 5 -4 5 C-3.67 3.68 -3.34 2.36 -3 1 C-3 1.66 -3 2.32 -3 3 C-2.34 3 -1.68 3 -1 3 C-0.67 2.01 -0.34 1.02 0 0 Z " fill="#C8773C" transform="translate(13,29)"/>
<path d="M0 0 C2.475 0.495 2.475 0.495 5 1 C4.6875 3.375 4.6875 3.375 4 6 C3.01 6.66 2.02 7.32 1 8 C0.67 5.36 0.34 2.72 0 0 Z " fill="#B87C06" transform="translate(4,12)"/>
<path d="M0 0 C1.98 0.495 1.98 0.495 4 1 C3.625 3.9375 3.625 3.9375 3 7 C2.01 7.495 2.01 7.495 1 8 C1 7.01 1 6.02 1 5 C0.34 4.67 -0.32 4.34 -1 4 C-0.67 2.68 -0.34 1.36 0 0 Z " fill="#BD890A" transform="translate(39,19)"/>
<path d="M0 0 C1.98 0.495 1.98 0.495 4 1 C4 2.32 4 3.64 4 5 C2.35 5 0.7 5 -1 5 C-0.67 3.35 -0.34 1.7 0 0 Z " fill="#B27D07" transform="translate(13,13)"/>
<path d="M0 0 C0.66 0 1.32 0 2 0 C1.375 1.875 1.375 1.875 0 4 C-2.875 5.375 -2.875 5.375 -6 6 C-7.32 5.34 -8.64 4.68 -10 4 C-6.7 3.34 -3.4 2.68 0 2 C0 1.34 0 0.68 0 0 Z " fill="#BB8D0C" transform="translate(40,32)"/>
<path d="M0 0 C1.32 0 2.64 0 4 0 C4 1.32 4 2.64 4 4 C2.35 4 0.7 4 -1 4 C-0.67 2.68 -0.34 1.36 0 0 Z " fill="#E1AE0E" transform="translate(22,8)"/>
<path d="M0 0 C0.66 0 1.32 0 2 0 C2 1.65 2 3.3 2 5 C0.68 5.33 -0.64 5.66 -2 6 C-1.125 1.125 -1.125 1.125 0 0 Z " fill="#36A2A3" transform="translate(23,27)"/>
<path d="M0 0 C2.0625 0.4375 2.0625 0.4375 4 1 C4.33 2.65 4.66 4.3 5 6 C4.01 5.67 3.02 5.34 2 5 C2 4.01 2 3.02 2 2 C1.01 1.67 0.02 1.34 -1 1 C-0.67 0.67 -0.34 0.34 0 0 Z " fill="#CB9508" transform="translate(13,18)"/>
<path d="M0 0 C0.66 0 1.32 0 2 0 C2 1.98 2 3.96 2 6 C1.01 6 0.02 6 -1 6 C-1.042721 4.33388095 -1.04063832 2.66617115 -1 1 C-0.67 0.67 -0.34 0.34 0 0 Z " fill="#13848C" transform="translate(41,26)"/>
<path d="M0 0 C0.99 0.33 1.98 0.66 3 1 C3 2.65 3 4.3 3 6 C2.01 6.495 2.01 6.495 1 7 C0.67 4.69 0.34 2.38 0 0 Z " fill="#10838E" transform="translate(5,26)"/>
</svg>
