<svg width="24" height="24" viewBox="0 0 24 24" fill="none" xmlns="http://www.w3.org/2000/svg">
<g clip-path="url(#clip0_1038_8884)">
<path d="M1.02167 23.0002C1.01731 22.4383 1.0112 21.876 1.00945 21.3141C1.00727 20.5841 1.03215 19.8527 1.0029 19.124C0.966232 18.2013 1.27968 17.4045 1.79307 16.6718C2.53085 15.6183 3.50787 14.8373 4.61934 14.2153C5.14714 13.9199 5.69982 13.6824 6.30226 13.4673C4.80968 12.3768 4.02824 10.9295 4.08761 9.08929C4.13389 7.6547 4.7311 6.45232 5.80765 5.50544C7.75382 3.79428 10.739 3.90315 12.5734 5.75785C13.6617 6.85838 14.1393 8.20386 14.0075 9.74338C13.8765 11.2759 13.1383 12.4844 11.8871 13.4146C12.1325 13.5059 12.3433 13.5783 12.5498 13.6617C13.9778 14.239 15.2216 15.0731 16.1554 16.3237C16.787 17.1696 17.1476 18.1051 17.1193 19.189C17.0887 20.3567 17.1127 21.5252 17.1118 22.6938C17.1118 22.7957 17.104 22.8979 17.0996 22.9998C11.7405 23.0002 6.38128 23.0002 1.02167 23.0002ZM9.03817 22.2017C11.3833 22.2017 13.7285 22.1995 16.0742 22.2057C16.2767 22.2061 16.3531 22.1574 16.3509 21.9388C16.34 20.9822 16.3505 20.0257 16.3448 19.0696C16.3413 18.4752 16.1999 17.9133 15.9052 17.3948C15.1661 16.095 14.0415 15.2372 12.7271 14.5994C11.9574 14.2263 11.1253 14.0371 10.3173 13.7772C10.2496 13.7557 10.1453 13.7596 10.1322 13.6868C10.1156 13.5946 10.226 13.5695 10.2885 13.527C10.6792 13.2609 11.0843 13.0147 11.4628 12.732C12.8218 11.717 13.4343 10.3505 13.1951 8.66655C12.7921 5.83072 9.72574 4.25477 7.17625 5.5388C4.62632 6.82326 4.07932 10.2328 6.09621 12.2605C6.60611 12.7732 7.2461 13.0976 7.83283 13.4998C7.90879 13.5516 8.045 13.5832 8.03627 13.6758C8.02579 13.7886 7.87911 13.7794 7.78918 13.8101C6.87546 14.1218 5.94341 14.3817 5.08951 14.8523C4.07146 15.4133 3.16735 16.1099 2.47628 17.0595C2.01353 17.6951 1.75291 18.3953 1.77124 19.1995C1.79176 20.1042 1.77561 21.0103 1.77604 21.9155C1.77604 22.2008 1.77692 22.2017 2.0681 22.2017C4.39102 22.2017 6.71481 22.2017 9.03817 22.2017Z" fill="#5D6679" stroke="#5D6679" stroke-width="0.5"/>
<path d="M22.9942 17.324C22.9942 18.0395 22.9889 18.755 22.9977 19.4706C22.9999 19.6642 22.9309 19.7234 22.744 19.7226C21.3209 19.7173 19.8977 19.7173 18.4741 19.7226C18.2877 19.7234 18.2143 19.6642 18.2196 19.4706C18.2357 18.8591 18.1419 18.9284 18.7474 18.9267C19.8147 18.9236 20.8821 18.9205 21.9495 18.9302C22.1682 18.932 22.2376 18.867 22.235 18.6444C22.2241 17.6879 22.2066 16.7305 22.2368 15.7752C22.2704 14.716 21.901 13.8169 21.2514 13.0171C20.2749 11.8156 19.008 11.0496 17.556 10.5711C17.3355 10.4982 17.1107 10.4381 16.8894 10.367C16.8248 10.3459 16.7235 10.3525 16.7148 10.2664C16.7078 10.1975 16.7977 10.1742 16.8496 10.1378C17.1771 9.90866 17.5185 9.70015 17.8157 9.42798C18.5976 8.71112 19.0757 7.82876 19.2149 6.77652C19.3926 5.43411 19.0302 4.23876 18.1305 3.23217C17.3508 2.35991 16.3673 1.86694 15.1916 1.79714C13.5689 1.70056 12.2837 2.33445 11.3176 3.63384C11.2006 3.791 11.1238 3.81909 10.957 3.70583C10.4991 3.39503 10.4908 3.39986 10.8448 2.96527C11.9611 1.59652 13.4056 0.93673 15.1606 1.00477C17.611 1.09959 19.7139 3.07809 19.9876 5.5263C20.1745 7.1975 19.682 8.63781 18.5068 9.83843C18.33 10.0188 18.3309 10.0145 18.5583 10.1128C20.0352 10.752 21.3082 11.6523 22.2097 13.0197C22.7314 13.8112 23.0309 14.6708 22.9977 15.637C22.9785 16.1989 22.9942 16.7616 22.9942 17.324Z" fill="#5D6679" stroke="#5D6679" stroke-width="0.5"/>
</g>
<defs>
<clipPath id="clip0_1038_8884">
<rect width="24" height="24" fill="white"/>
</clipPath>
</defs>
</svg>
