<?xml version="1.0" encoding="UTF-8"?>
<svg version="1.1" xmlns="http://www.w3.org/2000/svg" width="32" height="33">
<path d="M0 0 C9.57 0 19.14 0 29 0 C30.04619096 5.2309548 30.05758732 10.04035295 29.9609375 15.32226562 C29.89889257 21.03556997 30.42141988 26.21419883 31 32 C15.16 32.495 15.16 32.495 -1 33 C-0.67 29.37 -0.34 25.74 0 22 C0.06812706 20.03867327 0.10955003 18.07575478 0.09765625 16.11328125 C0.09515869 15.24743408 0.09266113 14.38158691 0.09008789 13.48950195 C0.08098389 12.44109131 0.07187988 11.39268066 0.0625 10.3125 C0.0315625 5.2078125 0.0315625 5.2078125 0 0 Z " fill="#5F5F5F" transform="translate(1,0)"/>
<path d="M0 0 C5.61 0 11.22 0 17 0 C17.66 1.98 18.32 3.96 19 6 C21.31 6 23.62 6 26 6 C26.33 9.3 26.66 12.6 27 16 C18.09 15.67 9.18 15.34 0 15 C0 10.05 0 5.1 0 0 Z " fill="#020202" transform="translate(3,1)"/>
<path d="M0 0 C9.9 0 19.8 0 30 0 C30.33 2.64 30.66 5.28 31 8 C15.16 8.495 15.16 8.495 -1 9 C-0.67 6.03 -0.34 3.06 0 0 Z " fill="#A09E9E" transform="translate(1,24)"/>
<path d="M0 0 C9.9 0 19.8 0 30 0 C30.33 2.31 30.66 4.62 31 7 C28.36 7 25.72 7 23 7 C22.67 5.02 22.34 3.04 22 1 C17.05 1 12.1 1 7 1 C7 2.98 7 4.96 7 7 C4.36 7 1.72 7 -1 7 C-0.67 4.69 -0.34 2.38 0 0 Z " fill="#B7B7B7" transform="translate(1,24)"/>
<path d="M0 0 C9.24 0 18.48 0 28 0 C28.82264058 4.11320291 29.04025145 6.33123788 28.5625 10.3125 C28.46066406 11.19550781 28.35882812 12.07851562 28.25390625 12.98828125 C28.17011719 13.65214844 28.08632813 14.31601563 28 15 C27.67 15 27.34 15 27 15 C27 12.36 27 9.72 27 7 C25.88625 7.061875 24.7725 7.12375 23.625 7.1875 C22.42875 7.125625 21.2325 7.06375 20 7 C18 4 18 4 18 1 C12.06 1 6.12 1 0 1 C0 0.67 0 0.34 0 0 Z " fill="#6A6A6A" transform="translate(2,0)"/>
<path d="M0 0 C6.93 0 13.86 0 21 0 C21 0.99 21 1.98 21 3 C12.42 3 3.84 3 -5 3 C-5 2.67 -5 2.34 -5 2 C-3.35 1.67 -1.7 1.34 0 1 C0 0.67 0 0.34 0 0 Z " fill="#454545" transform="translate(8,21)"/>
<path d="M0 0 C2.31 0 4.62 0 7 0 C7.33 3.3 7.66 6.6 8 10 C7.34 9.67 6.68 9.34 6 9 C6 7.68 6 6.36 6 5 C5.01 5.33 4.02 5.66 3 6 C2.01 4.02 1.02 2.04 0 0 Z " fill="#2C2C2C" transform="translate(22,7)"/>
<path d="M0 0 C8.25 0 16.5 0 25 0 C25 0.33 25 0.66 25 1 C18.07 1 11.14 1 4 1 C4 1.66 4 2.32 4 3 C2.68 3 1.36 3 0 3 C0 2.01 0 1.02 0 0 Z " fill="#3D3D3D" transform="translate(3,19)"/>
<path d="" fill="#FF0000" transform="translate(0,0)"/>
</svg>
