<svg width="24" height="24" viewBox="0 0 24 24" fill="none" xmlns="http://www.w3.org/2000/svg">
<path d="M4.00164 13.5432C4.00164 11.7331 3.99784 9.92393 4.00259 8.11384C4.00639 6.41143 5.19516 5.22967 6.928 5.2175C8.49372 5.20626 10.0604 5.21188 11.6261 5.21656C12.3572 5.21843 12.5766 5.44411 12.5785 6.1792C12.5813 7.06879 12.5927 7.95839 12.5728 8.84705C12.5642 9.21319 12.6934 9.34054 13.0646 9.3368C14.3616 9.32181 15.6586 9.32837 16.9566 9.33211C18.6638 9.3368 19.8288 10.3978 19.8573 12.0805C19.8972 14.4515 19.9 16.8235 19.8564 19.1945C19.825 20.8706 18.6818 21.9653 16.9803 21.9784C13.6106 22.0028 10.2408 22.0047 6.87198 21.9775C5.16193 21.9634 4.01019 20.7602 4.00354 19.0671C3.9969 17.2252 4.00164 15.3842 4.00164 13.5432ZM11.93 20.6525C13.5432 20.6525 15.1583 20.6094 16.7696 20.6665C17.9773 20.7086 18.6182 19.9136 18.6002 18.8499C18.5651 16.7289 18.5916 14.607 18.5888 12.485C18.5869 11.1759 18.0713 10.6646 16.7544 10.6637C13.5593 10.6628 10.3633 10.6618 7.16822 10.6646C6.70486 10.6656 6.24056 10.6403 5.81803 10.4577C5.40025 10.2779 5.33854 10.4259 5.33949 10.8014C5.34898 13.5469 5.34139 16.2925 5.34613 19.0381C5.34803 20.1047 5.90729 20.6478 6.99256 20.6506C8.63899 20.6553 10.2845 20.6525 11.93 20.6525ZM8.8099 9.32743C8.8099 9.32837 8.8099 9.32931 8.8099 9.33024C9.49069 9.33024 10.1705 9.32088 10.8504 9.33399C11.1751 9.34054 11.3061 9.21694 11.2995 8.89387C11.2862 8.2543 11.2862 7.61473 11.2985 6.97515C11.3052 6.64928 11.1609 6.53316 10.8428 6.53597C9.46601 6.5444 8.09018 6.54159 6.71341 6.54253C6.2529 6.54253 5.88355 6.71296 5.62908 7.10063C5.32334 7.5651 5.24738 8.04267 5.5028 8.56144C5.76296 9.08865 6.21492 9.30309 6.76753 9.32182C7.44927 9.34429 8.13006 9.32743 8.8099 9.32743Z" fill="#056BB7"/>
<path d="M16.4454 4.43658C16.0761 4.7765 15.7001 5.10144 15.3507 5.45166C15.1247 5.67827 14.9376 5.7073 14.723 5.45634C14.6319 5.34959 14.5303 5.24939 14.4211 5.16043C14.1638 4.95067 14.1904 4.77275 14.424 4.54708C15.2253 3.7736 16.0191 2.99169 16.7977 2.19667C17.0588 1.92979 17.2478 1.93822 17.4994 2.19948C18.2713 2.99918 19.0528 3.79139 19.8427 4.57423C20.0668 4.79616 20.0516 4.96472 19.8238 5.15294C19.7392 5.22317 19.6566 5.29902 19.5892 5.38423C19.3348 5.70636 19.0926 5.7176 18.8306 5.38892C18.5609 5.05087 18.2742 4.72406 17.996 4.39257C17.9286 4.43658 17.8611 4.48059 17.7928 4.5246C17.7928 5.32711 17.7947 6.12869 17.7918 6.9312C17.7899 7.54455 17.7586 7.57451 17.1623 7.57639C16.5366 7.57732 16.5091 7.55017 16.5072 6.91247C16.5043 6.11839 16.5034 5.32337 16.4986 4.52929C16.4977 4.504 16.4701 4.47872 16.4454 4.43658Z" fill="#056BB7"/>
<path d="M15.7037 15.6756C15.7037 16.1111 15.6951 16.5456 15.7065 16.981C15.7189 17.4408 15.3951 17.4136 15.0922 17.4043C14.794 17.3949 14.4171 17.4979 14.4199 16.9941C14.4237 16.1082 14.4285 15.2224 14.418 14.3375C14.4123 13.8749 14.7314 13.9086 15.0324 13.9189C15.3286 13.9283 15.7094 13.8168 15.7046 14.3253C15.6999 14.7739 15.7027 15.2252 15.7037 15.6756Z" fill="#056BB7"/>
</svg>
