<svg width="24" height="24" viewBox="0 0 24 24" fill="none" xmlns="http://www.w3.org/2000/svg">
<g clip-path="url(#clip0_1038_8854)">
<path d="M11.2452 16C8.54482 16.0051 6.36223 13.7951 6.35938 11.0533C6.35652 8.32254 8.54839 6.06956 11.2188 6.05863C13.8879 6.04771 16.0826 8.28684 16.0919 11.03C16.1011 13.7827 13.9435 15.9949 11.2452 16ZM15.0633 11.0388C15.0669 8.87321 13.3537 7.12139 11.231 7.11993C9.10973 7.11847 7.40288 8.86593 7.40146 11.0417C7.39932 13.2094 9.10973 14.962 11.2331 14.9693C13.3437 14.9766 15.0605 13.2145 15.0633 11.0388Z" fill="#5D6679"/>
<path d="M15.063 11.039C15.0594 13.2155 13.3426 14.9768 11.232 14.9695C9.10866 14.9622 7.39825 13.2089 7.40039 11.0419C7.40253 8.86612 9.10866 7.11866 11.2299 7.12012C13.3533 7.12157 15.0666 8.8734 15.063 11.039ZM12.8512 9.85239C12.7905 9.33813 12.6336 8.87049 12.1643 8.59515C11.9524 8.47132 11.8419 8.34239 11.8512 8.07069C11.8619 7.75821 11.6793 7.54187 11.3597 7.5324C11.038 7.52293 10.8512 7.73053 10.8455 8.0452C10.8412 8.29505 10.7463 8.39775 10.5323 8.50483C9.93676 8.80202 9.65502 9.34104 9.63434 9.99516C9.61365 10.6427 10.0259 11.0229 10.5473 11.2961C10.8419 11.4505 11.1564 11.5678 11.4418 11.7382C11.6621 11.8701 11.8747 12.0682 11.7613 12.3676C11.6586 12.6393 11.4018 12.7092 11.1322 12.7121C10.7549 12.7172 10.6507 12.4812 10.6372 12.1469C10.6229 11.8002 10.4389 11.5977 10.0937 11.6151C9.73633 11.6334 9.60224 11.8876 9.61579 12.2146C9.64147 12.8156 9.85474 13.3233 10.4175 13.5957C10.6358 13.7013 10.7741 13.7931 10.7606 14.083C10.7477 14.3583 10.9453 14.512 11.2228 14.5324C11.5052 14.5528 11.7378 14.4101 11.7313 14.1442C11.7206 13.7254 11.9503 13.5534 12.2485 13.3808C12.3669 13.3123 12.4681 13.1943 12.5494 13.0785C13.0644 12.3443 12.8269 11.3755 11.9781 10.835C11.6586 10.6318 11.2913 10.5094 10.9574 10.3288C10.5958 10.1328 10.5651 9.91212 10.8212 9.59162C10.9774 9.3964 11.1793 9.31992 11.4139 9.38111C11.6985 9.4554 11.8098 9.66009 11.8205 9.95801C11.8333 10.2974 12.038 10.5276 12.3626 10.5058C12.7106 10.4817 12.8754 10.2217 12.8512 9.85239Z" fill="#FAFAFA"/>
<path d="M12.851 9.85228C12.8753 10.2216 12.7105 10.4816 12.361 10.5049C12.0365 10.5268 11.8317 10.2966 11.8189 9.95717C11.8075 9.65925 11.6962 9.45457 11.4123 9.38027C11.1777 9.31908 10.9758 9.39556 10.8196 9.59078C10.5636 9.91128 10.5942 10.132 10.9559 10.3279C11.2897 10.5093 11.657 10.6317 11.9765 10.8342C12.826 11.3739 13.0636 12.3427 12.5479 13.0777C12.4666 13.1935 12.366 13.3115 12.2469 13.38C11.9487 13.5526 11.7191 13.7238 11.7297 14.1433C11.7369 14.4085 11.5036 14.552 11.2212 14.5316C10.9437 14.5119 10.7469 14.3582 10.759 14.0822C10.7725 13.7915 10.6335 13.7005 10.4159 13.5949C9.85386 13.3224 9.63988 12.814 9.61421 12.2138C9.60065 11.8867 9.73475 11.6325 10.0921 11.6143C10.438 11.5968 10.6213 11.7986 10.6356 12.146C10.6492 12.4804 10.7533 12.7157 11.1306 12.7113C11.4002 12.7077 11.657 12.6385 11.7597 12.3668C11.8731 12.0674 11.6606 11.8692 11.4402 11.7374C11.1549 11.567 10.8403 11.4497 10.5457 11.2953C10.025 11.0228 9.61207 10.6426 9.63275 9.99432C9.65344 9.3402 9.93589 8.80118 10.5308 8.50399C10.744 8.39764 10.8396 8.29421 10.8439 8.04436C10.8496 7.73042 11.0365 7.52209 11.3581 7.53156C11.6777 7.54103 11.861 7.7581 11.8496 8.06986C11.8403 8.34082 11.9516 8.46975 12.1627 8.59431C12.6335 8.87038 12.7904 9.33875 12.851 9.85228Z" fill="#5D6679"/>
<path d="M3.00081 12.1418C3.00081 8.96166 3.00081 5.78152 3.00081 2.60139C3.00081 2.07414 3.08437 2.00454 3.71229 2.00454C7.52119 2.00454 11.3301 2.00681 15.139 2.00001C15.4586 1.99925 15.6963 2.07489 15.934 2.25115C17.2597 3.23681 18.5958 4.21415 19.9393 5.18393C20.1916 5.36623 20.3051 5.55383 20.3043 5.83448C20.2922 8.54107 20.3011 11.2484 20.2897 13.9558C20.2889 14.1948 20.3425 14.3408 20.6451 14.4202C20.9404 14.4974 21.1975 14.6502 21.4271 14.8227C21.789 15.0942 21.9975 15.4195 21.9958 15.8363C21.9877 17.5966 21.9796 19.3576 21.9999 21.1179C22.0064 21.6694 21.7289 22.0672 21.2032 22.3736C20.5242 22.7692 19.7446 22.9341 18.9284 22.9818C17.7196 23.0529 16.5571 22.9311 15.5357 22.3396C15.3832 22.2511 15.2266 22.2783 15.07 22.2775C11.3017 22.2753 7.53336 22.276 3.76421 22.2753C3.08032 22.2753 3 22.2095 3 21.6489C3.00081 18.4801 3.00081 15.3113 3.00081 12.1418ZM9.4366 2.71713C7.72077 2.71713 6.00412 2.7262 4.28829 2.70956C3.94026 2.70653 3.87617 2.78899 3.87698 3.05602C3.88672 9.09934 3.88672 15.1427 3.87698 21.1867C3.87617 21.4734 3.94188 21.5703 4.32805 21.5687C7.67858 21.5544 11.0299 21.5604 14.3813 21.5604C14.4624 21.5604 14.5435 21.5574 14.6247 21.5612C14.7715 21.568 14.8202 21.5392 14.8194 21.3963C14.8039 19.5581 14.8064 17.7199 14.795 15.8817C14.7918 15.4036 15.0295 15.036 15.4805 14.7448C15.7913 14.5443 16.1377 14.3991 16.51 14.2985C17.3408 14.0745 18.1902 13.9823 19.0615 14.0859C19.3162 14.1161 19.4403 14.095 19.4387 13.8332C19.4257 11.3014 19.4274 8.76952 19.4371 6.23767C19.4379 6.0183 19.3608 5.96156 19.098 5.96383C17.9225 5.97442 16.7469 5.96988 15.5714 5.96761C15.0992 5.96686 14.9938 5.8844 14.9922 5.50542C14.9881 4.69072 14.9767 3.87601 14.9986 3.06207C15.0059 2.79428 14.9305 2.70805 14.5849 2.71107C12.8691 2.72545 11.1532 2.71713 9.4366 2.71713ZM18.496 16.797C18.7475 16.825 19.0818 16.766 19.4087 16.7138C19.9255 16.6321 20.4268 16.4975 20.83 16.2002C21.2113 15.9195 21.2138 15.6412 20.8414 15.3613C20.7432 15.2871 20.6378 15.2115 20.5193 15.1646C19.1085 14.6124 17.6912 14.6033 16.2837 15.1638C15.9803 15.2849 15.6777 15.4619 15.6761 15.7713C15.6752 16.0958 15.9973 16.2622 16.3064 16.4014C16.9587 16.6941 17.671 16.7887 18.496 16.797ZM15.6752 16.9604C15.6282 17.8667 15.7442 18.0694 16.6033 18.3493C17.791 18.7358 18.999 18.7388 20.1867 18.3493C21.0637 18.0618 21.2267 17.7789 21.0637 16.9854C19.2765 17.6859 17.4917 17.6874 15.6752 16.9604ZM21.0759 20.6474C19.2789 21.3577 17.4811 21.3516 15.6866 20.636C15.5966 21.5408 15.8018 21.8116 16.8256 22.0884C17.8949 22.3774 18.9844 22.3955 20.0342 22.0642C21.2089 21.6928 21.1732 21.4802 21.0759 20.6474ZM15.6963 18.8009C15.5828 19.611 15.6022 19.872 16.7656 20.2306C17.8308 20.5589 18.9317 20.5407 20.0107 20.2412C21.0028 19.9658 21.2048 19.6791 21.0759 18.8115C19.2813 19.5218 17.4876 19.5256 15.6963 18.8009Z" fill="#5D6679" stroke="#5D6679" stroke-width="0.5"/>
<path d="M9.00142 18.9968C8.13767 18.9968 7.27393 18.9927 6.41018 19C6.18677 19.002 6.00285 18.9197 6.00003 18.5036C5.99721 18.0813 6.1879 17.999 6.40736 18C8.13485 18.0021 9.86234 18.0031 11.5898 18C11.8104 18 11.9977 18.0845 12 18.5015C12.0022 18.927 11.8132 19 11.5926 18.9989C10.7289 18.9937 9.86516 18.9968 9.00142 18.9968Z" fill="#5D6679"/>
</g>
<defs>
<clipPath id="clip0_1038_8854">
<rect width="24" height="24" fill="white"/>
</clipPath>
</defs>
</svg>
