<svg width="24" height="24" viewBox="0 0 24 24" fill="none" xmlns="http://www.w3.org/2000/svg">
<g clip-path="url(#clip0_1652_33028)">
<path d="M11.2452 16.0039C8.54482 16.009 6.36223 13.799 6.35938 11.0573C6.35652 8.32644 8.54839 6.07347 11.2188 6.06254C13.8879 6.05161 16.0826 8.29075 16.0919 11.0339C16.1011 13.7866 13.9435 15.9988 11.2452 16.0039ZM15.0633 11.0427C15.0669 8.87712 13.3537 7.12529 11.231 7.12384C9.10973 7.12238 7.40288 8.86984 7.40146 11.0456C7.39932 13.2134 9.10973 14.9659 11.2331 14.9732C13.3437 14.9805 15.0605 13.2185 15.0633 11.0427Z" fill="#056BB7"/>
<path d="M15.061 11.0439C15.0575 13.2203 13.3406 14.9816 11.2301 14.9744C9.10671 14.9671 7.3963 13.2138 7.39844 11.0468C7.40058 8.871 9.10671 7.12354 11.228 7.125C13.3513 7.12646 15.0646 8.87829 15.061 11.0439ZM12.8492 9.85727C12.7886 9.34301 12.6317 8.87537 12.1623 8.60003C11.9505 8.4762 11.8399 8.34728 11.8492 8.07558C11.8599 7.76309 11.6773 7.54675 11.3578 7.53728C11.0361 7.52781 10.8492 7.73541 10.8435 8.05008C10.8392 8.29993 10.7444 8.40263 10.5304 8.50971C9.93481 8.8069 9.65307 9.34593 9.63238 10C9.6117 10.6476 10.024 11.0278 10.5454 11.301C10.8399 11.4554 11.1545 11.5727 11.4398 11.7431C11.6602 11.875 11.8727 12.0731 11.7593 12.3725C11.6566 12.6442 11.3999 12.7141 11.1302 12.717C10.7529 12.7221 10.6488 12.4861 10.6352 12.1518C10.621 11.805 10.4369 11.6025 10.0917 11.62C9.73438 11.6382 9.60029 11.8925 9.61384 12.2195C9.63952 12.8204 9.85278 13.3282 10.4155 13.6006C10.6338 13.7062 10.7722 13.798 10.7586 14.0879C10.7458 14.3632 10.9434 14.5169 11.2208 14.5373C11.5033 14.5577 11.7358 14.4149 11.7294 14.1491C11.7187 13.7302 11.9484 13.5583 12.2465 13.3857C12.3649 13.3172 12.4662 13.1992 12.5475 13.0834C13.0625 12.3492 12.825 11.3804 11.9762 10.8399C11.6566 10.6367 11.2893 10.5143 10.9555 10.3337C10.5939 10.1377 10.5632 9.917 10.8193 9.5965C10.9755 9.40129 11.1773 9.3248 11.412 9.38599C11.6966 9.46029 11.8078 9.66497 11.8185 9.96289C11.8314 10.3023 12.0361 10.5325 12.3606 10.5107C12.7087 10.4866 12.8735 10.2266 12.8492 9.85727Z" fill="#FAFAFA"/>
<path d="M12.851 9.85228C12.8753 10.2216 12.7105 10.4816 12.361 10.5049C12.0365 10.5268 11.8317 10.2966 11.8189 9.95717C11.8075 9.65925 11.6962 9.45457 11.4123 9.38027C11.1777 9.31908 10.9758 9.39556 10.8196 9.59078C10.5636 9.91128 10.5942 10.132 10.9559 10.3279C11.2897 10.5093 11.657 10.6317 11.9765 10.8342C12.826 11.3739 13.0636 12.3427 12.5479 13.0777C12.4666 13.1935 12.366 13.3115 12.2469 13.38C11.9487 13.5526 11.7191 13.7238 11.7297 14.1433C11.7369 14.4085 11.5036 14.552 11.2212 14.5316C10.9437 14.5119 10.7469 14.3582 10.759 14.0822C10.7725 13.7915 10.6335 13.7005 10.4159 13.5949C9.85386 13.3224 9.63988 12.814 9.61421 12.2138C9.60065 11.8867 9.73475 11.6325 10.0921 11.6143C10.438 11.5968 10.6213 11.7986 10.6356 12.146C10.6492 12.4804 10.7533 12.7157 11.1306 12.7113C11.4002 12.7077 11.657 12.6385 11.7597 12.3668C11.8731 12.0674 11.6606 11.8692 11.4402 11.7374C11.1549 11.567 10.8403 11.4497 10.5457 11.2953C10.025 11.0228 9.61207 10.6426 9.63275 9.99432C9.65344 9.3402 9.93589 8.80118 10.5308 8.50399C10.744 8.39764 10.8396 8.29421 10.8439 8.04436C10.8496 7.73042 11.0365 7.52209 11.3581 7.53156C11.6777 7.54103 11.861 7.7581 11.8496 8.06986C11.8403 8.34082 11.9516 8.46975 12.1627 8.59431C12.6335 8.87038 12.7904 9.33875 12.851 9.85228Z" fill="#056BB7"/>
<path d="M3.00081 12.1418C3.00081 8.96166 3.00081 5.78152 3.00081 2.60139C3.00081 2.07414 3.08437 2.00454 3.71229 2.00454C7.52119 2.00454 11.3301 2.00681 15.139 2.00001C15.4586 1.99925 15.6963 2.07489 15.934 2.25115C17.2597 3.23681 18.5958 4.21415 19.9393 5.18393C20.1916 5.36623 20.3051 5.55383 20.3043 5.83448C20.2922 8.54107 20.3011 11.2484 20.2897 13.9558C20.2889 14.1948 20.3425 14.3408 20.6451 14.4202C20.9404 14.4974 21.1975 14.6502 21.4271 14.8227C21.789 15.0942 21.9975 15.4195 21.9958 15.8363C21.9877 17.5966 21.9796 19.3576 21.9999 21.1179C22.0064 21.6694 21.7289 22.0672 21.2032 22.3736C20.5242 22.7692 19.7446 22.9341 18.9284 22.9818C17.7196 23.0529 16.5571 22.9311 15.5357 22.3396C15.3832 22.2511 15.2266 22.2783 15.07 22.2775C11.3017 22.2753 7.53336 22.276 3.76421 22.2753C3.08032 22.2753 3 22.2095 3 21.6489C3.00081 18.4801 3.00081 15.3113 3.00081 12.1418ZM9.4366 2.71713C7.72077 2.71713 6.00412 2.7262 4.28829 2.70956C3.94026 2.70653 3.87617 2.78899 3.87698 3.05602C3.88672 9.09934 3.88672 15.1427 3.87698 21.1867C3.87617 21.4734 3.94188 21.5703 4.32805 21.5687C7.67858 21.5544 11.0299 21.5604 14.3813 21.5604C14.4624 21.5604 14.5435 21.5574 14.6247 21.5612C14.7715 21.568 14.8202 21.5392 14.8194 21.3963C14.8039 19.5581 14.8064 17.7199 14.795 15.8817C14.7918 15.4036 15.0295 15.036 15.4805 14.7448C15.7913 14.5443 16.1377 14.3991 16.51 14.2985C17.3408 14.0745 18.1902 13.9823 19.0615 14.0859C19.3162 14.1161 19.4403 14.095 19.4387 13.8332C19.4257 11.3014 19.4274 8.76952 19.4371 6.23767C19.4379 6.0183 19.3608 5.96156 19.098 5.96383C17.9225 5.97442 16.7469 5.96988 15.5714 5.96761C15.0992 5.96686 14.9938 5.8844 14.9922 5.50542C14.9881 4.69072 14.9767 3.87601 14.9986 3.06207C15.0059 2.79428 14.9305 2.70805 14.5849 2.71107C12.8691 2.72545 11.1532 2.71713 9.4366 2.71713ZM18.496 16.797C18.7475 16.825 19.0818 16.766 19.4087 16.7138C19.9255 16.6321 20.4268 16.4975 20.83 16.2002C21.2113 15.9195 21.2138 15.6412 20.8414 15.3613C20.7432 15.2871 20.6378 15.2115 20.5193 15.1646C19.1085 14.6124 17.6912 14.6033 16.2837 15.1638C15.9803 15.2849 15.6777 15.4619 15.6761 15.7713C15.6752 16.0958 15.9973 16.2622 16.3064 16.4014C16.9587 16.6941 17.671 16.7887 18.496 16.797ZM15.6752 16.9604C15.6282 17.8667 15.7442 18.0694 16.6033 18.3493C17.791 18.7358 18.999 18.7388 20.1867 18.3493C21.0637 18.0618 21.2267 17.7789 21.0637 16.9854C19.2765 17.6859 17.4917 17.6874 15.6752 16.9604ZM21.0759 20.6474C19.2789 21.3577 17.4811 21.3516 15.6866 20.636C15.5966 21.5408 15.8018 21.8116 16.8256 22.0884C17.8949 22.3774 18.9844 22.3955 20.0342 22.0642C21.2089 21.6928 21.1732 21.4802 21.0759 20.6474ZM15.6963 18.8009C15.5828 19.611 15.6022 19.872 16.7656 20.2306C17.8308 20.5589 18.9317 20.5407 20.0107 20.2412C21.0028 19.9658 21.2048 19.6791 21.0759 18.8115C19.2813 19.5218 17.4876 19.5256 15.6963 18.8009Z" fill="#056BB7" stroke="#056BB7" stroke-width="0.5"/>
<path d="M9.00142 18.9968C8.13767 18.9968 7.27393 18.9927 6.41018 19C6.18677 19.002 6.00285 18.9197 6.00003 18.5036C5.99721 18.0813 6.1879 17.999 6.40736 18C8.13485 18.0021 9.86234 18.0031 11.5898 18C11.8104 18 11.9977 18.0845 12 18.5015C12.0022 18.927 11.8132 19 11.5926 18.9989C10.7289 18.9937 9.86516 18.9968 9.00142 18.9968Z" fill="#056BB7"/>
</g>
<defs>
<clipPath id="clip0_1652_33028">
<rect width="24" height="24" fill="white"/>
</clipPath>
</defs>
</svg>
