<svg width="20" height="20" viewBox="0 0 20 20" fill="none" xmlns="http://www.w3.org/2000/svg">
<path d="M0.394531 14.5849C1.24273 14.9693 2.04095 15.3807 2.8663 15.6977C7.18582 17.3502 11.1055 16.2811 14.7225 13.2174C15.0738 12.9206 15.0409 12.6761 14.7482 12.3524C14.3484 11.9123 13.9728 11.4418 13.5958 10.9748C13.5202 10.8804 13.4245 10.732 13.4373 10.6274C13.4659 10.4099 13.6544 10.4521 13.7872 10.4521C15.6649 10.447 17.5441 10.4554 19.4219 10.4453C19.8131 10.4436 19.9945 10.6443 19.9959 11.0945C19.9987 13.3405 20.0002 15.5864 20.0002 17.8324C20.0002 17.9673 20.0144 18.1359 19.8888 18.205C19.7203 18.2995 19.6303 18.1174 19.5347 18.0078C19.1934 17.6166 18.835 17.2422 18.5294 16.814C18.1424 16.2727 17.8525 16.2542 17.3656 16.7398C15.1609 18.9352 12.622 20.1559 9.70185 19.9839C7.34861 19.844 5.20669 18.8593 3.21472 17.4142C2.38508 16.8106 1.61257 16.1041 0.882887 15.3403C0.698683 15.1463 0.437369 15.0148 0.394531 14.5849Z" fill="#056BB7"/>
<path d="M19.6839 5.52708C18.8914 5.0988 18.1217 4.61656 17.2921 4.30293C12.944 2.66398 8.99576 3.66893 5.34595 6.75798C4.98039 7.06824 4.93755 7.2925 5.28169 7.66177C5.6858 8.0968 6.05135 8.57904 6.4269 9.04948C6.67822 9.3631 6.61253 9.5469 6.24555 9.5469C4.36495 9.54858 2.48578 9.54352 0.60518 9.54858C0.238199 9.55027 0.115396 9.3395 0.095405 8.92976C-0.0174024 6.74112 -0.0459612 4.55248 0.0968329 2.36384C0.106829 2.20366 0.0639903 1.99795 0.21678 1.91364C0.375282 1.82596 0.476665 2.00301 0.575193 2.11429C0.900764 2.48525 1.24061 2.84271 1.53477 3.24571C1.88319 3.7212 2.15735 3.76336 2.59573 3.32496C4.23501 1.68095 6.08276 0.534358 8.24895 0.144854C10.4123 -0.244649 12.4699 0.170147 14.4534 1.1633C16.3511 2.11429 18.0789 3.39578 19.5568 5.11397C19.6311 5.19997 19.7696 5.2573 19.6839 5.52708ZM4.80047 8.61951C4.77191 8.22494 4.56201 8.10354 4.42064 7.92987C3.79663 7.16435 3.76664 7.12894 4.45348 6.46122C6.73676 4.24391 9.34704 2.96749 12.31 2.6741C13.2639 2.57967 14.212 2.69096 15.1702 2.62688C13.7308 1.7602 12.26 1.08236 10.645 0.940723C7.80772 0.691171 5.38307 1.85294 3.20546 3.91343C2.08167 4.9774 2.07025 4.95885 0.98644 3.89151C0.956454 3.86116 0.902192 3.86453 0.752258 3.82069C0.925039 5.27079 0.843646 6.68885 0.883629 8.10523C0.892196 8.39187 1.005 8.61276 1.26346 8.61445C2.43866 8.62625 3.61385 8.61951 4.80047 8.61951Z" fill="#056BB7"/>
</svg>
