<svg width="24" height="24" viewBox="0 0 24 24" fill="none" xmlns="http://www.w3.org/2000/svg">
<path d="M19.1818 7.55556V17.8667C19.1818 19.0489 18.2091 20 17 20H5C3.79091 20 2.81818 19.0489 2.81818 17.8667V7.55556M7.36364 11.1111H14.6364M2.45455 4H19.5455C19.9312 4 20.3012 4.14984 20.574 4.41656C20.8468 4.68328 21 5.04503 21 5.42222V6.13333C21 6.3201 20.9624 6.50504 20.8893 6.67759C20.8162 6.85015 20.709 7.00693 20.574 7.139C20.4389 7.27106 20.2786 7.37582 20.1021 7.4473C19.9256 7.51877 19.7365 7.55556 19.5455 7.55556H2.45455C2.06878 7.55556 1.69881 7.40571 1.42603 7.139C1.15325 6.87228 1 6.51053 1 6.13333V5.42222C1 5.23545 1.03762 5.05051 1.11072 4.87796C1.18382 4.70541 1.29096 4.54862 1.42603 4.41656C1.69881 4.14984 2.06878 4 2.45455 4Z" stroke="#056BB7" stroke-width="1.5" stroke-miterlimit="10" stroke-linecap="round" stroke-linejoin="round"/>
</svg>
