<svg width="18" height="11" viewBox="0 0 18 11" fill="none" xmlns="http://www.w3.org/2000/svg">
<path fill-rule="evenodd" clip-rule="evenodd" d="M17.3527 1.81577C17.7841 2.2472 17.7841 2.9467 17.3527 3.37814L10.7241 10.0067C10.2926 10.4382 9.59313 10.4382 9.16169 10.0067L5.52382 6.36885L1.88595 10.0067C1.45451 10.4382 0.755015 10.4382 0.323578 10.0067C-0.107859 9.57529 -0.107859 8.87579 0.323578 8.44435L4.74264 4.02529C5.17407 3.59386 5.87357 3.59386 6.30501 4.02529L9.94288 7.66317L15.7903 1.81577C16.2217 1.38433 16.9212 1.38433 17.3527 1.81577Z" fill="#37DF34"/>
<path fill-rule="evenodd" clip-rule="evenodd" d="M12.1523 1.76883C12.1523 1.15868 12.647 0.664062 13.2571 0.664062H16.5714C17.1815 0.664062 17.6762 1.15868 17.6762 1.76883V5.08312C17.6762 5.69326 17.1815 6.18788 16.5714 6.18788C15.9613 6.18788 15.4666 5.69326 15.4666 5.08312V2.87359H13.2571C12.647 2.87359 12.1523 2.37897 12.1523 1.76883Z" fill="#37DF34"/>
</svg>
