<svg width="18" height="11" viewBox="0 0 18 11" fill="none" xmlns="http://www.w3.org/2000/svg">
<path fill-rule="evenodd" clip-rule="evenodd" d="M0.32313 9.18423C-0.108309 8.7528 -0.108309 8.0533 0.32313 7.62186L6.95172 0.993275C7.38315 0.561838 8.08265 0.561838 8.51409 0.993275L12.152 4.63115L15.7898 0.993275C16.2213 0.561838 16.9208 0.561838 17.3522 0.993275C17.7836 1.42471 17.7836 2.12421 17.3522 2.55565L12.9331 6.97471C12.5017 7.40614 11.8022 7.40614 11.3708 6.97471L7.7329 3.33683L1.8855 9.18423C1.45407 9.61567 0.754566 9.61567 0.32313 9.18423Z" fill="#DF3434"/>
<path fill-rule="evenodd" clip-rule="evenodd" d="M5.52344 9.23117C5.52344 9.84132 5.02882 10.3359 4.41867 10.3359H1.10438C0.494236 10.3359 -0.000383854 9.84132 -0.000383854 9.23117V5.91688C-0.000383854 5.30674 0.494236 4.81212 1.10438 4.81212C1.71452 4.81212 2.20914 5.30674 2.20914 5.91688V8.12641H4.41867C5.02882 8.12641 5.52344 8.62103 5.52344 9.23117Z" fill="#DF3434"/>
</svg>
