<?xml version="1.0" ?><svg data-name="Слой 1" id="Слой_1" viewBox="0 0 128 128" xmlns="http://www.w3.org/2000/svg"><title/><path d="M64,0a64,64,0,1,0,64,64A64.07,64.07,0,0,0,64,0Zm0,124a60,60,0,1,1,60-60A60.07,60.07,0,0,1,64,124Z"/><path d="M78.5,34h-48a2,2,0,0,0,0,4h48a21,21,0,0,1,0,42H35.33l18.6-18.58a2,2,0,0,0-2.83-2.84l-22,22-.08.1a1.2,1.2,0,0,0-.17.21l-.06.1-.13.24,0,.12c0,.09-.06.17-.08.25a2,2,0,0,0,0,.8c0,.08.05.16.08.25l0,.12.13.24.06.1a1.84,1.84,0,0,0,.17.22.73.73,0,0,1,.08.09l22,22a2,2,0,0,0,2.83,0,2,2,0,0,0,0-2.83L35.33,84H78.5a25,25,0,0,0,0-50Z"/></svg>