<svg width="19" height="19" viewBox="0 0 19 19" fill="none" xmlns="http://www.w3.org/2000/svg">
<path d="M8.29912 0C8.8192 0 9.33965 0 9.85974 0C10.2088 0.0566457 10.5612 0.0910775 10.9084 0.162903C15.792 1.16994 19.0654 5.95447 17.9701 11.0022C16.9206 15.839 12.3062 18.9467 7.44959 18.0178C3.78013 17.3162 1.41403 15.0633 0.305387 11.4961C0.139923 10.9641 0.0732928 10.4117 0 9.86154C0 9.34136 0 8.82082 0 8.30064C0.0425691 8.01482 0.0688508 7.72566 0.129558 7.44355C0.917271 3.79119 3.10014 1.41281 6.66595 0.305072C7.1975 0.139948 7.74942 0.0733062 8.29912 0ZM9.08276 16.6253C13.2423 16.6242 16.6197 13.2488 16.6223 9.09035C16.6249 4.91818 13.2519 1.53832 9.08424 1.53684C4.91284 1.53536 1.53693 4.90967 1.53656 9.08035C1.53619 13.2499 4.91284 16.6261 9.08276 16.6253Z" fill="#5D6679"/>
<path d="M16.0323 0C16.7045 0.139208 17.2679 0.455758 17.6825 1.01481C18.3325 1.89189 18.3429 3.12329 17.7077 3.99778C17.5678 4.1903 17.5526 4.19327 17.3912 4.03221C16.2966 2.93854 15.2046 1.84228 14.1063 0.752315C13.9797 0.626805 14.0053 0.563866 14.1345 0.469826C14.4717 0.224362 14.8507 0.0870049 15.2524 0C15.5122 0 15.7725 0 16.0323 0Z" fill="#5D6679"/>
<path d="M0 2.90893C0 2.6605 0 2.41244 0 2.16402C0.0795856 1.76046 0.214696 1.38023 0.458635 1.04406C0.882475 0.45983 1.46178 0.130322 2.16362 0C2.412 0 2.66001 0 2.90839 0C3.30262 0.0895965 3.68093 0.217697 4.01001 0.463532C4.18287 0.592744 4.1862 0.607553 4.03888 0.755277C2.94504 1.85043 1.85046 2.94484 0.755508 4.03925C0.607812 4.18697 0.592635 4.18364 0.463818 4.01074C0.217657 3.6816 0.0895801 3.30359 0 2.90893Z" fill="#5D6679"/>
<path d="M4.83596 6.96362C4.84929 6.69002 5.00031 6.44344 5.3057 6.31016C5.61294 6.17576 5.90241 6.2313 6.14116 6.46159C6.54502 6.85144 6.93739 7.25314 7.33458 7.65004C7.90315 8.21834 8.47543 8.78295 9.03623 9.35829C9.16579 9.49121 9.2376 9.4764 9.36013 9.35274C10.7016 8.00287 12.0494 6.65892 13.3938 5.31238C13.5437 5.16207 13.707 5.04248 13.9272 5.02619C14.2807 5.00027 14.5672 5.15836 14.7116 5.45936C14.8593 5.7674 14.8079 6.09468 14.5502 6.3557C13.9983 6.91549 13.4405 7.46899 12.8845 8.02508C11.7144 9.19539 10.5443 10.3661 9.37419 11.536C9.19947 11.7108 9.19799 11.7111 9.02809 11.5412C7.72399 10.2376 6.42101 8.93289 5.11581 7.63004C4.94553 7.46048 4.83411 7.26795 4.83596 6.96362Z" fill="#5D6679"/>
</svg>
