<svg width="24" height="24" viewBox="0 0 24 24" fill="none" xmlns="http://www.w3.org/2000/svg">
<g clip-path="url(#clip0_1010_1452)">
<path d="M23 20C23 21.0609 22.5786 22.0783 21.8284 22.8284C21.0783 23.5786 20.0609 24 19 24H17V22H19C19.5304 22 20.0391 21.7893 20.4142 21.4142C20.7893 21.0391 21 20.5304 21 20C21 19.4696 20.7893 18.9609 20.4142 18.5858C20.0391 18.2107 19.5304 18 19 18H17V16H19C20.0609 16 21.0783 16.4214 21.8284 17.1716C22.5786 17.9217 23 18.9391 23 20ZM9 20C9 18.9391 9.42143 17.9217 10.1716 17.1716C10.9217 16.4214 11.9391 16 13 16H15V18H13C12.4696 18 11.9609 18.2107 11.5858 18.5858C11.2107 18.9609 11 19.4696 11 20C11 20.5304 11.2107 21.0391 11.5858 21.4142C11.9609 21.7893 12.4696 22 13 22H15V24H13C11.9391 24 10.9217 23.5786 10.1716 22.8284C9.42143 22.0783 9 21.0609 9 20Z" fill="#5D6679" stroke="#F6F6F6" stroke-width="0.5"/>
<path d="M14 19H18V21H14V19ZM9 6C8.40666 6 7.82664 6.17595 7.33329 6.50559C6.83994 6.83524 6.45542 7.30377 6.22836 7.85195C6.0013 8.40013 5.94189 9.00333 6.05764 9.58527C6.1734 10.1672 6.45912 10.7018 6.87868 11.1213C7.29824 11.5409 7.83279 11.8266 8.41473 11.9424C8.99667 12.0581 9.59987 11.9987 10.1481 11.7716C10.6962 11.5446 11.1648 11.1601 11.4944 10.6667C11.8241 10.1734 12 9.59334 12 9C11.9974 8.20516 11.6804 7.44363 11.1184 6.88159C10.5564 6.31955 9.79484 6.00264 9 6ZM9 10C8.80222 10 8.60888 9.94135 8.44443 9.83147C8.27998 9.72159 8.15181 9.56541 8.07612 9.38268C8.00043 9.19996 7.98063 8.99889 8.01921 8.80491C8.0578 8.61093 8.15304 8.43275 8.29289 8.29289C8.43275 8.15304 8.61093 8.0578 8.80491 8.01921C8.99889 7.98063 9.19996 8.00043 9.38268 8.07612C9.56541 8.15181 9.72159 8.27998 9.83147 8.44443C9.94135 8.60888 10 8.80222 10 9C9.99921 9.26497 9.8936 9.51887 9.70623 9.70623C9.51887 9.8936 9.26497 9.99921 9 10ZM5.31 16C6.41088 15.2886 7.6894 14.9005 9 14.88C9.26045 14.8844 9.52033 14.9058 9.778 14.944C10.7396 14.3276 11.8578 14 13 14H13.254C11.9437 13.2989 10.4858 12.9185 9 12.89C6.97 12.89 3 13.96 3 16.47V18H7.349C7.61074 17.2622 8.01432 16.5828 8.537 16H5.31Z" fill="#5D6679" stroke="#F6F6F6" stroke-width="0.5"/>
<path d="M16 3.0002H11.82C11.6152 2.41564 11.2339 1.90916 10.7287 1.55082C10.2235 1.19248 9.61939 1 9 1C8.38061 1 7.77654 1.19248 7.27133 1.55082C6.76612 1.90916 6.38476 2.41564 6.18 3.0002H2C1.47005 3.00179 0.962265 3.21301 0.587535 3.58774C0.212805 3.96247 0.00158273 4.47026 0 5.0002L0 19.0002C0.00158273 19.5301 0.212805 20.0379 0.587535 20.4127C0.962265 20.7874 1.47005 20.9986 2 21.0002H7.141C6.9521 20.3469 6.9521 19.6535 7.141 19.0002H2V5.0002H16V14.0002H18V5.0002C17.9984 4.47026 17.7872 3.96247 17.4125 3.58774C17.0377 3.21301 16.5299 3.00179 16 3.0002ZM9 4.2502C8.80157 4.24863 8.61172 4.16911 8.4714 4.0288C8.33109 3.88849 8.25157 3.69863 8.25 3.5002C8.25 3.30129 8.32902 3.11052 8.46967 2.96987C8.61032 2.82922 8.80109 2.7502 9 2.7502C9.19891 2.7502 9.38968 2.82922 9.53033 2.96987C9.67098 3.11052 9.75 3.30129 9.75 3.5002C9.74843 3.69863 9.66891 3.88849 9.5286 4.0288C9.38828 4.16911 9.19843 4.24863 9 4.2502Z" fill="#5D6679" stroke="#F6F6F6" stroke-width="0.5"/>
</g>
<defs>
<clipPath id="clip0_1010_1452">
<rect width="23" height="23" fill="white" transform="translate(0 1)"/>
</clipPath>
</defs>
</svg>
