<svg width="24" height="24" viewBox="0 0 24 24" fill="none" xmlns="http://www.w3.org/2000/svg">
<g clip-path="url(#clip0_1010_1559)">
<path d="M22.4981 21.3771V21.3771C22.5009 20.5848 22.5003 19.7932 22.4996 19.0003C22.4993 18.6508 22.499 18.3011 22.499 17.951C22.499 17.6199 22.4992 17.289 22.4994 16.9584C22.5 16.1514 22.5005 15.3457 22.4978 14.5394L22.4978 14.5392C22.4942 13.3294 21.5781 12.411 20.3624 12.4081M22.4981 21.3771L20.339 23.4997C19.5549 23.4995 18.7712 23.4997 17.9875 23.4998C16.4992 23.5001 15.0114 23.5004 13.5231 23.4983L13.523 23.4983C12.2946 23.4966 11.3769 22.5832 11.3741 21.3673M22.4981 21.3771C22.4945 22.3849 21.8397 23.2106 20.8753 23.4404L20.8751 23.4405C20.7047 23.4811 20.5263 23.4997 20.3391 23.4997L22.4981 21.3771ZM20.3624 12.4081L20.3636 11.9081M20.3624 12.4081L20.3636 11.9081M20.3624 12.4081C18.0766 12.4029 15.7904 12.4032 13.5044 12.4081C12.2965 12.4107 11.3769 13.329 11.3741 14.5284C11.3688 16.8079 11.3688 19.0877 11.3741 21.3673M20.3636 11.9081C18.0769 11.9029 15.79 11.9032 13.5033 11.9081C12.0219 11.9113 10.8776 13.0508 10.8741 14.5272C10.8688 16.8075 10.8688 19.0881 10.8741 21.3684M20.3636 11.9081C21.8543 11.9116 22.9934 13.0528 22.9978 14.5377C23.0005 15.345 23 16.1524 22.9994 16.9598C22.9992 17.2902 22.999 17.6206 22.999 17.951C22.999 18.3002 22.9993 18.6494 22.9996 18.9986C23.0003 19.792 23.0009 20.5855 22.9981 21.3789L10.8741 21.3684M11.3741 21.3673L10.8741 21.3684M11.3741 21.3673L10.8741 21.3684M18.7564 16.0225L18.7564 16.0225C18.3293 16.0247 17.9015 16.0243 17.4755 16.0238C17.2967 16.0236 17.1184 16.0234 16.9405 16.0234C16.7612 16.0234 16.581 16.0237 16.4001 16.0241C15.9712 16.0249 15.5389 16.0258 15.1081 16.0219L15.108 16.0219C14.2856 16.0142 13.7883 15.1328 14.2141 14.4278L14.2142 14.4277C14.4029 14.1152 14.713 13.934 15.0821 13.9283C15.0821 13.9283 15.0822 13.9283 15.0823 13.9283L18.7564 16.0225ZM18.7564 16.0225C19.3473 16.0193 19.7966 15.5796 19.8049 14.9913L18.7564 16.0225Z" stroke="#5D6679"/>
<path d="M6.44538 13.8676C7.49376 13.8676 8.54213 13.8676 9.5905 13.8676C9.81434 13.8676 9.82663 13.8818 9.79093 14.101C9.76518 14.2606 9.7725 14.4211 9.7725 14.5813C9.77162 16.8327 9.7763 19.0841 9.77016 21.3355C9.76752 22.2252 10.0259 23.0183 10.5806 23.7153C10.6778 23.8373 10.6702 23.8545 10.5154 23.8784C9.63907 24.0144 8.76216 24.027 7.87998 23.9225C6.43134 23.7506 5.09329 23.2704 3.8679 22.4907C2.58077 21.6722 1.54673 20.6014 0.772811 19.2849C0.545464 18.8982 0.32865 18.5058 0.184985 18.0807C-0.152964 17.0804 -0.0286107 16.1318 0.56419 15.2585C1.09642 14.4742 1.85483 14.0353 2.78997 13.9005C2.97723 13.8737 3.16889 13.8693 3.35849 13.869C4.38755 13.8661 5.41632 13.8676 6.44538 13.8676Z" fill="#5D6679"/>
<path d="M9.01601 1.5C11.4019 1.50314 13.3054 3.40072 13.3062 5.78079V5.78084C13.3072 8.19647 11.3265 10.0689 9.01677 10.0522V10.0522L9.00949 10.0522C6.66102 10.0694 4.71945 8.12206 4.72364 5.77743C4.72783 3.45812 6.60206 1.49687 9.01601 1.5ZM9.01601 1.5L9.01667 1M9.01601 1.5L9.01667 1M9.01667 1C11.6767 1.00351 13.8053 3.12304 13.8062 5.78063L9.01315 10.5522C6.38447 10.5715 4.21896 8.39678 4.22364 5.77654C4.22832 3.1884 6.31951 0.996503 9.01667 1Z" stroke="#5D6679"/>
</g>
<defs>
<clipPath id="clip0_1010_1559">
<rect width="23" height="23" fill="white" transform="translate(0 1)"/>
</clipPath>
</defs>
</svg>
