<svg width="24" height="24" viewBox="0 0 24 24" fill="none" xmlns="http://www.w3.org/2000/svg">
<g clip-path="url(#clip0_1670_16315)">
<path d="M20.3633 12.4102C21.5028 12.4128 22.379 13.2199 22.4873 14.3174L22.499 14.541C22.5028 15.6776 22.5 16.8136 22.5 17.9531L22.499 21.3789C22.4957 22.3236 21.9202 23.1087 21.0537 23.3926L20.876 23.4424C20.7056 23.4831 20.527 23.502 20.3398 23.502L13.5244 23.5C12.3728 23.4984 11.4935 22.6959 11.3857 21.5938L11.375 21.3691C11.3724 20.2295 11.3711 19.0899 11.3711 17.9502L11.375 14.5303C11.3777 13.4059 12.186 12.5284 13.2822 12.4209L13.5059 12.4102C14.6487 12.4077 15.7917 12.4063 16.9346 12.4062L20.3633 12.4102ZM15.9385 13.9277L15.083 13.9307C14.7603 13.9356 14.4828 14.0745 14.292 14.3184L14.2148 14.4297C13.8157 15.0908 14.2282 15.9072 14.959 16.0127L15.1094 16.0234C15.7217 16.029 16.3369 16.0254 16.9414 16.0254L18.7578 16.0244C19.3116 16.0212 19.7405 15.6345 19.7988 15.1016L19.8057 14.9932C19.8097 14.711 19.7136 14.437 19.5098 14.2324C19.3318 14.0538 19.1 13.956 18.8545 13.9336L18.748 13.9287C17.8111 13.9252 16.873 13.9277 15.9385 13.9277Z" stroke="#056BB7"/>
<path d="M6.44538 13.8676C7.49376 13.8676 8.54213 13.8676 9.5905 13.8676C9.81434 13.8676 9.82663 13.8818 9.79093 14.101C9.76518 14.2606 9.7725 14.4211 9.7725 14.5813C9.77162 16.8327 9.7763 19.0841 9.77016 21.3355C9.76752 22.2252 10.0259 23.0183 10.5806 23.7153C10.6778 23.8373 10.6702 23.8545 10.5154 23.8784C9.63907 24.0144 8.76216 24.027 7.87998 23.9225C6.43134 23.7506 5.09329 23.2704 3.8679 22.4907C2.58077 21.6722 1.54673 20.6014 0.772811 19.2849C0.545464 18.8982 0.32865 18.5058 0.184985 18.0807C-0.152964 17.0804 -0.0286107 16.1318 0.56419 15.2585C1.09642 14.4742 1.85483 14.0353 2.78997 13.9005C2.97723 13.8737 3.16889 13.8693 3.35849 13.869C4.38755 13.8661 5.41632 13.8676 6.44538 13.8676Z" fill="#056BB7"/>
<path d="M9.01465 1.5C11.3261 1.50304 13.1854 3.2842 13.2998 5.55957L13.3057 5.78125C13.3065 8.12115 11.4473 9.95087 9.23145 10.0479L9.01562 10.0518H9.00879C6.73372 10.0684 4.83986 8.24189 4.72754 5.99609L4.72266 5.77734C4.72677 3.53065 6.48567 1.62041 8.79004 1.50586L9.01465 1.5Z" stroke="#056BB7"/>
</g>
<defs>
<clipPath id="clip0_1670_16315">
<rect width="23" height="23" fill="white" transform="translate(0 1)"/>
</clipPath>
</defs>
</svg>
