<svg width="24" height="24" viewBox="0 0 24 24" fill="none" xmlns="http://www.w3.org/2000/svg">
<g clip-path="url(#clip0_1010_1644)">
<path d="M11.9997 14.4997C13.3804 14.4997 14.4997 13.3804 14.4997 11.9997C14.4997 10.619 13.3804 9.49967 11.9997 9.49967C10.619 9.49967 9.49967 10.619 9.49967 11.9997C9.49967 13.3804 10.619 14.4997 11.9997 14.4997Z" stroke="#5D6679" stroke-width="1.2" stroke-linecap="round" stroke-linejoin="round"/>
<path d="M18.1663 14.4997C18.0554 14.751 18.0223 15.0298 18.0713 15.3002C18.1204 15.5705 18.2492 15.8199 18.4413 16.0163L18.4913 16.0663C18.6463 16.2211 18.7692 16.4049 18.8531 16.6073C18.937 16.8096 18.9802 17.0265 18.9802 17.2455C18.9802 17.4645 18.937 17.6814 18.8531 17.8837C18.7692 18.0861 18.6463 18.2699 18.4913 18.4247C18.3366 18.5796 18.1527 18.7026 17.9504 18.7864C17.7481 18.8703 17.5312 18.9135 17.3122 18.9135C17.0931 18.9135 16.8763 18.8703 16.6739 18.7864C16.4716 18.7026 16.2878 18.5796 16.133 18.4247L16.083 18.3747C15.8866 18.1826 15.6372 18.0537 15.3668 18.0047C15.0965 17.9557 14.8177 17.9887 14.5663 18.0997C14.3199 18.2053 14.1097 18.3807 13.9616 18.6043C13.8135 18.8279 13.7341 19.0899 13.733 19.358V19.4997C13.733 19.9417 13.5574 20.3656 13.2449 20.6782C12.9323 20.9907 12.5084 21.1663 12.0663 21.1663C11.6243 21.1663 11.2004 20.9907 10.8878 20.6782C10.5753 20.3656 10.3997 19.9417 10.3997 19.4997V19.4247C10.3932 19.1488 10.3039 18.8813 10.1434 18.6569C9.98293 18.4325 9.75862 18.2616 9.49967 18.1663C9.24833 18.0554 8.96951 18.0223 8.69918 18.0713C8.42885 18.1204 8.17941 18.2492 7.98301 18.4413L7.93301 18.4913C7.77822 18.6463 7.5944 18.7692 7.39207 18.8531C7.18974 18.937 6.97287 18.9802 6.75384 18.9802C6.53481 18.9802 6.31794 18.937 6.11561 18.8531C5.91328 18.7692 5.72946 18.6463 5.57467 18.4913C5.41971 18.3366 5.29678 18.1527 5.21291 17.9504C5.12903 17.7481 5.08586 17.5312 5.08586 17.3122C5.08586 17.0931 5.12903 16.8763 5.21291 16.6739C5.29678 16.4716 5.41971 16.2878 5.57467 16.133L5.62467 16.083C5.81679 15.8866 5.94566 15.6372 5.99468 15.3668C6.04369 15.0965 6.0106 14.8177 5.89967 14.5663C5.79404 14.3199 5.61864 14.1097 5.39506 13.9616C5.17149 13.8135 4.9095 13.7341 4.64134 13.733H4.49967C4.05765 13.733 3.63372 13.5574 3.32116 13.2449C3.0086 12.9323 2.83301 12.5084 2.83301 12.0663C2.83301 11.6243 3.0086 11.2004 3.32116 10.8878C3.63372 10.5753 4.05765 10.3997 4.49967 10.3997H4.57467C4.8505 10.3932 5.11801 10.3039 5.34242 10.1434C5.56684 9.98293 5.73777 9.75862 5.83301 9.49967C5.94394 9.24833 5.97703 8.96951 5.92801 8.69918C5.879 8.42885 5.75012 8.17941 5.55801 7.98301L5.50801 7.93301C5.35305 7.77822 5.23012 7.5944 5.14624 7.39207C5.06237 7.18974 5.0192 6.97287 5.0192 6.75384C5.0192 6.53481 5.06237 6.31794 5.14624 6.11561C5.23012 5.91328 5.35305 5.72946 5.50801 5.57467C5.6628 5.41971 5.84661 5.29678 6.04894 5.21291C6.25127 5.12903 6.46815 5.08586 6.68717 5.08586C6.9062 5.08586 7.12308 5.12903 7.32541 5.21291C7.52774 5.29678 7.71155 5.41971 7.86634 5.57467L7.91634 5.62467C8.11274 5.81679 8.36219 5.94566 8.63252 5.99468C8.90285 6.04369 9.18166 6.0106 9.43301 5.89967H9.49967C9.74615 5.79404 9.95635 5.61864 10.1044 5.39506C10.2525 5.17149 10.3319 4.9095 10.333 4.64134V4.49967C10.333 4.05765 10.5086 3.63372 10.8212 3.32116C11.1337 3.0086 11.5576 2.83301 11.9997 2.83301C12.4417 2.83301 12.8656 3.0086 13.1782 3.32116C13.4907 3.63372 13.6663 4.05765 13.6663 4.49967V4.57467C13.6674 4.84283 13.7469 5.10482 13.8949 5.3284C14.043 5.55197 14.2532 5.72737 14.4997 5.83301C14.751 5.94394 15.0298 5.97703 15.3002 5.92801C15.5705 5.879 15.8199 5.75012 16.0163 5.55801L16.0663 5.50801C16.2211 5.35305 16.4049 5.23012 16.6073 5.14624C16.8096 5.06237 17.0265 5.0192 17.2455 5.0192C17.4645 5.0192 17.6814 5.06237 17.8837 5.14624C18.0861 5.23012 18.2699 5.35305 18.4247 5.50801C18.5796 5.6628 18.7026 5.84661 18.7864 6.04894C18.8703 6.25127 18.9135 6.46815 18.9135 6.68717C18.9135 6.9062 18.8703 7.12308 18.7864 7.32541C18.7026 7.52774 18.5796 7.71155 18.4247 7.86634L18.3747 7.91634C18.1826 8.11274 18.0537 8.36219 18.0047 8.63252C17.9557 8.90285 17.9887 9.18166 18.0997 9.43301V9.49967C18.2053 9.74615 18.3807 9.95635 18.6043 10.1044C18.8279 10.2525 19.0899 10.3319 19.358 10.333H19.4997C19.9417 10.333 20.3656 10.5086 20.6782 10.8212C20.9907 11.1337 21.1663 11.5576 21.1663 11.9997C21.1663 12.4417 20.9907 12.8656 20.6782 13.1782C20.3656 13.4907 19.9417 13.6663 19.4997 13.6663H19.4247C19.1565 13.6674 18.8945 13.7469 18.671 13.8949C18.4474 14.043 18.272 14.2532 18.1663 14.4997Z" stroke="#5D6679" stroke-width="1.2" stroke-linecap="round" stroke-linejoin="round"/>
</g>
<defs>
<clipPath id="clip0_1010_1644">
<rect width="20" height="20" fill="white" transform="translate(2 2)"/>
</clipPath>
</defs>
</svg>
