<svg width="24" height="24" viewBox="0 0 24 24" fill="none" xmlns="http://www.w3.org/2000/svg">
<g clip-path="url(#clip0_1670_31781)">
<path d="M11.9987 14.5026C13.3794 14.5026 14.4987 13.3833 14.4987 12.0026C14.4987 10.6219 13.3794 9.5026 11.9987 9.5026C10.618 9.5026 9.4987 10.6219 9.4987 12.0026C9.4987 13.3833 10.618 14.5026 11.9987 14.5026Z" stroke="#056BB7" stroke-width="1.2" stroke-linecap="round" stroke-linejoin="round"/>
<path d="M18.1654 14.5026C18.0544 14.7539 18.0213 15.0328 18.0704 15.3031C18.1194 15.5734 18.2482 15.8229 18.4404 16.0193L18.4904 16.0693C18.6453 16.2241 18.7683 16.4079 18.8521 16.6102C18.936 16.8125 18.9792 17.0294 18.9792 17.2484C18.9792 17.4675 18.936 17.6843 18.8521 17.8867C18.7683 18.089 18.6453 18.2728 18.4904 18.4276C18.3356 18.5826 18.1518 18.7055 17.9494 18.7894C17.7471 18.8732 17.5302 18.9164 17.3112 18.9164C17.0922 18.9164 16.8753 18.8732 16.673 18.7894C16.4706 18.7055 16.2868 18.5826 16.132 18.4276L16.082 18.3776C15.8856 18.1855 15.6362 18.0566 15.3659 18.0076C15.0955 17.9586 14.8167 17.9917 14.5654 18.1026C14.3189 18.2082 14.1087 18.3836 13.9606 18.6072C13.8126 18.8308 13.7331 19.0928 13.732 19.3609V19.5026C13.732 19.9446 13.5564 20.3686 13.2439 20.6811C12.9313 20.9937 12.5074 21.1693 12.0654 21.1693C11.6233 21.1693 11.1994 20.9937 10.8869 20.6811C10.5743 20.3686 10.3987 19.9446 10.3987 19.5026V19.4276C10.3922 19.1518 10.303 18.8843 10.1425 18.6599C9.98195 18.4354 9.75764 18.2645 9.4987 18.1693C9.24735 18.0583 8.96854 18.0252 8.69821 18.0743C8.42788 18.1233 8.17843 18.2522 7.98203 18.4443L7.93203 18.4943C7.77724 18.6492 7.59343 18.7722 7.3911 18.856C7.18877 18.9399 6.97189 18.9831 6.75286 18.9831C6.53384 18.9831 6.31696 18.9399 6.11463 18.856C5.9123 18.7722 5.72849 18.6492 5.5737 18.4943C5.41874 18.3395 5.29581 18.1557 5.21193 17.9533C5.12806 17.751 5.08489 17.5341 5.08489 17.3151C5.08489 17.0961 5.12806 16.8792 5.21193 16.6769C5.29581 16.4745 5.41874 16.2907 5.5737 16.1359L5.6237 16.0859C5.81581 15.8895 5.94469 15.6401 5.9937 15.3698C6.04272 15.0994 6.00963 14.8206 5.8987 14.5693C5.79306 14.3228 5.61766 14.1126 5.39409 13.9645C5.17051 13.8165 4.90852 13.737 4.64036 13.7359H4.4987C4.05667 13.7359 3.63275 13.5603 3.32019 13.2478C3.00763 12.9352 2.83203 12.5113 2.83203 12.0693C2.83203 11.6272 3.00763 11.2033 3.32019 10.8908C3.63275 10.5782 4.05667 10.4026 4.4987 10.4026H4.5737C4.84953 10.3962 5.11703 10.3069 5.34145 10.1464C5.56586 9.98586 5.73679 9.76155 5.83203 9.5026C5.94296 9.25126 5.97605 8.97244 5.92703 8.70211C5.87802 8.43178 5.74914 8.18234 5.55703 7.98594L5.50703 7.93594C5.35207 7.78115 5.22914 7.59733 5.14526 7.395C5.06139 7.19267 5.01822 6.9758 5.01822 6.75677C5.01822 6.53774 5.06139 6.32087 5.14526 6.11854C5.22914 5.91621 5.35207 5.73239 5.50703 5.5776C5.66182 5.42264 5.84563 5.29971 6.04796 5.21584C6.25029 5.13196 6.46717 5.08879 6.6862 5.08879C6.90522 5.08879 7.1221 5.13196 7.32443 5.21584C7.52676 5.29971 7.71058 5.42264 7.86536 5.5776L7.91536 5.6276C8.11176 5.81972 8.36121 5.94859 8.63154 5.99761C8.90187 6.04662 9.18068 6.01353 9.43203 5.9026H9.4987C9.74517 5.79697 9.95538 5.62157 10.1034 5.39799C10.2515 5.17442 10.331 4.91243 10.332 4.64427V4.5026C10.332 4.06058 10.5076 3.63665 10.8202 3.32409C11.1327 3.01153 11.5567 2.83594 11.9987 2.83594C12.4407 2.83594 12.8646 3.01153 13.1772 3.32409C13.4898 3.63665 13.6654 4.06058 13.6654 4.5026V4.5776C13.6664 4.84576 13.7459 5.10775 13.894 5.33133C14.042 5.5549 14.2522 5.7303 14.4987 5.83594C14.75 5.94687 15.0289 5.97996 15.2992 5.93094C15.5695 5.88193 15.819 5.75305 16.0154 5.56094L16.0654 5.51094C16.2202 5.35598 16.404 5.23304 16.6063 5.14917C16.8086 5.0653 17.0255 5.02213 17.2445 5.02213C17.4636 5.02213 17.6804 5.0653 17.8828 5.14917C18.0851 5.23304 18.2689 5.35598 18.4237 5.51094C18.5787 5.66573 18.7016 5.84954 18.7855 6.05187C18.8693 6.2542 18.9125 6.47108 18.9125 6.6901C18.9125 6.90913 18.8693 7.12601 18.7855 7.32834C18.7016 7.53067 18.5787 7.71448 18.4237 7.86927L18.3737 7.91927C18.1816 8.11567 18.0527 8.36512 18.0037 8.63545C17.9547 8.90578 17.9878 9.18459 18.0987 9.43594V9.5026C18.2043 9.74908 18.3797 9.95928 18.6033 10.1073C18.8269 10.2554 19.0889 10.3349 19.357 10.3359H19.4987C19.9407 10.3359 20.3646 10.5115 20.6772 10.8241C20.9898 11.1367 21.1654 11.5606 21.1654 12.0026C21.1654 12.4446 20.9898 12.8686 20.6772 13.1811C20.3646 13.4937 19.9407 13.6693 19.4987 13.6693H19.4237C19.1555 13.6703 18.8936 13.7498 18.67 13.8979C18.4464 14.0459 18.271 14.2561 18.1654 14.5026Z" stroke="#056BB7" stroke-width="1.2" stroke-linecap="round" stroke-linejoin="round"/>
</g>
<defs>
<clipPath id="clip0_1670_31781">
<rect width="20" height="20" fill="white" transform="translate(2 2)"/>
</clipPath>
</defs>
</svg>
