<svg width="17" height="20" viewBox="0 0 17 20" fill="none" xmlns="http://www.w3.org/2000/svg">
<path d="M6.83927 15.7031H5.46519C5.37364 15.7031 5.3125 15.7643 5.3125 15.8558C5.3125 15.9474 5.37364 16.0085 5.46519 16.0085H6.83927C6.93083 16.0085 6.99197 15.9474 6.99197 15.8558C6.99197 15.7794 6.91569 15.7031 6.83927 15.7031Z" fill="#5D6679"/>
<path d="M15.4923 0.697487C15.0425 0.247713 14.4449 0.000278326 13.8084 0.000278326L2.38109 0C1.74456 0 1.1473 0.247435 0.697209 0.697209C0.247435 1.14698 0 1.74453 0 2.38109V17.6189C0 18.2554 0.247435 18.8527 0.697209 19.3028C1.14698 19.7526 1.74453 20 2.38109 20H13.8098C14.4463 20 15.0436 19.7526 15.4937 19.3028C15.9435 18.853 16.1909 18.2555 16.1909 17.6189V2.38109C16.1898 1.74484 15.9424 1.1473 15.4926 0.697494L15.4923 0.697487ZM15.2379 17.6197C15.2379 18.4077 14.5975 19.0481 13.8095 19.0481H2.38079C1.59282 19.0481 0.952411 18.4076 0.952411 17.6197V2.38116C0.952411 1.59319 1.59284 0.95278 2.38079 0.95278H13.8095C14.5975 0.95278 15.2379 1.59321 15.2379 2.38116V17.6197Z" fill="#5D6679"/>
<path d="M5.85145 8.70965L4.28335 10.278L3.66797 9.66266C3.48232 9.47701 3.18006 9.47701 2.9947 9.66266C2.80906 9.8483 2.80906 10.1506 2.9947 10.3359L3.9474 11.2886C4.0373 11.3785 4.15782 11.4283 4.28446 11.4283C4.41109 11.4283 4.53189 11.3785 4.62151 11.2886L6.52663 9.38351C6.71228 9.19786 6.71228 8.8956 6.52663 8.71024C6.34099 8.52432 6.03678 8.52321 5.85141 8.70969L5.85145 8.70965Z" fill="#5D6679"/>
<path d="M5.85145 13.4751L4.28335 15.0432L3.66797 14.4278C3.48232 14.2422 3.18006 14.2422 2.9947 14.4278C2.80906 14.6135 2.80906 14.9157 2.9947 15.1011L3.9474 16.0538C4.0373 16.1437 4.15782 16.1935 4.28446 16.1935C4.41109 16.1935 4.53189 16.1437 4.62151 16.0538L6.52663 14.1487C6.71228 13.963 6.71228 13.6608 6.52663 13.4754C6.34099 13.2895 6.03678 13.2895 5.85141 13.4751L5.85145 13.4751Z" fill="#5D6679"/>
<path d="M5.85145 3.95146L4.28335 5.51956L3.66797 4.90419C3.48232 4.71854 3.18006 4.71854 2.9947 4.90419C2.80906 5.08983 2.80906 5.39209 2.9947 5.57745L3.9474 6.53016C4.0373 6.62005 4.15782 6.66987 4.28446 6.66987C4.41109 6.66987 4.53189 6.62005 4.62151 6.53016L6.52663 4.62504C6.71228 4.43939 6.71228 4.13713 6.52663 3.95177C6.34099 3.76612 6.03678 3.76612 5.85141 3.95149L5.85145 3.95146Z" fill="#5D6679"/>
<path d="M12.8592 9.52344H8.09703C7.83374 9.52344 7.62109 9.73691 7.62109 9.99937C7.62109 10.2618 7.83457 10.4753 8.09703 10.4753H12.8592C13.1225 10.4753 13.3351 10.2618 13.3351 9.99937C13.3351 9.73608 13.1216 9.52344 12.8592 9.52344Z" fill="#5D6679"/>
<path d="M12.8592 15.2422H8.09703C7.83374 15.2422 7.62109 15.4557 7.62109 15.7181C7.62109 15.9806 7.83457 16.1941 8.09703 16.1941H12.8592C13.1225 16.1941 13.3351 15.9806 13.3351 15.7181C13.3351 15.4557 13.1216 15.2422 12.8592 15.2422Z" fill="#5D6679"/>
<path d="M12.8592 4.75781H8.09703C7.83374 4.75781 7.62109 4.97129 7.62109 5.23375C7.62109 5.49621 7.83457 5.70969 8.09703 5.70969H12.8592C13.1225 5.70969 13.3351 5.49621 13.3351 5.23375C13.3351 4.97129 13.1216 4.75781 12.8592 4.75781Z" fill="#5D6679"/>
<path d="M6.83927 16.7734H5.46519C5.37364 16.7734 5.3125 16.8346 5.3125 16.9261C5.3125 17.0177 5.37364 17.0788 5.46519 17.0788H6.83927C6.93083 17.0788 6.99197 17.0177 6.99197 16.9261C6.99197 16.8346 6.91569 16.7734 6.83927 16.7734Z" fill="#5D6679"/>
</svg>
