<svg width="17" height="18" viewBox="0 0 17 18" fill="none" xmlns="http://www.w3.org/2000/svg">
<path d="M16.1273 14.5C15.7062 13.5026 15.0952 12.5967 14.3282 11.8326C13.5635 11.0663 12.6577 10.4554 11.6608 10.0335C11.6518 10.029 11.6429 10.0268 11.634 10.0223C13.0246 9.01786 13.9286 7.3817 13.9286 5.53572C13.9286 2.47768 11.4509 0 8.39291 0C5.33488 0 2.8572 2.47768 2.8572 5.53572C2.8572 7.3817 3.76122 9.01786 5.15184 10.0246C5.14291 10.029 5.13399 10.0313 5.12506 10.0357C4.12506 10.4576 3.22773 11.0625 2.45765 11.8348C1.69137 12.5995 1.08042 13.5053 0.658538 14.5022C0.244079 15.4782 0.0205512 16.5247 5.5817e-05 17.5848C-0.000539953 17.6086 0.00363868 17.6323 0.0123456 17.6545C0.0210526 17.6767 0.0341116 17.6969 0.0507531 17.714C0.0673947 17.731 0.0872822 17.7446 0.109244 17.7539C0.131205 17.7631 0.154796 17.7679 0.178627 17.7679H1.51791C1.61613 17.7679 1.69425 17.6897 1.69648 17.5938C1.74113 15.8705 2.43309 14.2567 3.65631 13.0335C4.92193 11.7679 6.60274 11.0714 8.39291 11.0714C10.1831 11.0714 11.8639 11.7679 13.1295 13.0335C14.3527 14.2567 15.0447 15.8705 15.0893 17.5938C15.0916 17.692 15.1697 17.7679 15.2679 17.7679H16.6072C16.631 17.7679 16.6546 17.7631 16.6766 17.7539C16.6985 17.7446 16.7184 17.731 16.7351 17.714C16.7517 17.6969 16.7648 17.6767 16.7735 17.6545C16.7822 17.6323 16.7864 17.6086 16.7858 17.5848C16.7635 16.5179 16.5425 15.4799 16.1273 14.5ZM8.39291 9.375C7.36836 9.375 6.40407 8.97545 5.67863 8.25C4.95318 7.52455 4.55363 6.56027 4.55363 5.53572C4.55363 4.51116 4.95318 3.54688 5.67863 2.82143C6.40407 2.09598 7.36836 1.69643 8.39291 1.69643C9.41747 1.69643 10.3818 2.09598 11.1072 2.82143C11.8326 3.54688 12.2322 4.51116 12.2322 5.53572C12.2322 6.56027 11.8326 7.52455 11.1072 8.25C10.3818 8.97545 9.41747 9.375 8.39291 9.375Z" fill="#5D6679"/>
</svg>
